<svg xmlns="http://www.w3.org/2000/svg" xmlns:xlink="http://www.w3.org/1999/xlink" width="1080" zoomAndPan="magnify" viewBox="0 0 810 809.999993" height="1080" preserveAspectRatio="xMidYMid meet" version="1.0"><path fill="#11a776" d="M 804.300781 102.050781 C 801.84375 94.492188 797.640625 87.953125 791.699219 82.429688 C 780.078125 71.765625 764.828125 63.847656 748.59375 64.574219 C 732.617188 65.289062 716.828125 70.609375 705.484375 82.429688 C 672.351562 116.96875 639.585938 151.863281 607.214844 187.117188 C 573.757812 223.558594 540.710938 260.378906 508.089844 297.574219 C 475.679688 334.53125 443.683594 371.855469 412.117188 409.535156 C 381.539062 446.035156 351.359375 482.867188 321.589844 520.027344 C 301.992188 544.492188 282.605469 569.121094 263.351562 593.851562 C 231.6875 562.5 201.40625 529.75 172.714844 495.644531 C 161.675781 482.523438 150.886719 469.191406 140.316406 455.691406 C 131.351562 443.984375 122.53125 432.167969 113.917969 420.203125 C 110.085938 413.097656 104.851562 407.394531 98.214844 403.097656 C 92.328125 397.707031 85.417969 394.070312 77.484375 392.183594 C 69.382812 389.644531 61.277344 389.28125 53.175781 391.097656 C 45.0625 391.464844 37.507812 393.875 30.511719 398.332031 C 17.496094 406.722656 6.035156 419.222656 2.496094 434.765625 C 1.769531 440.167969 1.042969 445.574219 0.320312 450.976562 C 0.320312 451.132812 0.332031 451.289062 0.335938 451.449219 C 0.328125 451.488281 0.324219 451.527344 0.320312 451.570312 C 0.351562 462.574219 3.128906 472.832031 8.640625 482.339844 C 60.269531 554.046875 117.296875 621.867188 180.292969 683.859375 C 195.53125 698.855469 211.101562 713.511719 226.972656 727.835938 C 234.578125 735.394531 243.546875 740.621094 253.875 743.515625 C 261.976562 746.058594 270.078125 746.421875 278.183594 744.605469 C 286.292969 744.238281 293.851562 741.824219 300.847656 737.371094 C 310.007812 731.949219 317.296875 724.660156 322.71875 715.496094 C 329.011719 707.253906 335.335938 699.03125 341.667969 690.816406 C 366.636719 658.585938 391.890625 626.574219 417.460938 594.816406 C 445.757812 559.664062 474.421875 524.808594 503.445312 490.25 C 533.203125 454.816406 563.34375 419.695312 593.851562 384.902344 C 624.710938 349.710938 655.949219 314.847656 687.5625 280.328125 C 718.0625 247.023438 748.90625 214.035156 780.089844 181.375 C 783.953125 177.324219 787.824219 173.285156 791.699219 169.246094 C 802.664062 157.816406 809.550781 142.101562 809.550781 126.136719 C 809.59375 125.0625 809.597656 124 809.570312 122.949219 C 809.46875 115.53125 807.722656 108.5625 804.300781 102.050781 Z M 804.300781 102.050781 " fill-opacity="1" fill-rule="nonzero"/></svg>