<svg xmlns="http://www.w3.org/2000/svg" xmlns:xlink="http://www.w3.org/1999/xlink" width="1080" zoomAndPan="magnify" viewBox="0 0 810 809.999993" height="1080" preserveAspectRatio="xMidYMid meet" version="1.0"><defs><clipPath id="6cdfdefd1c"><path d="M 19 24 L 790 24 L 790 793.5 L 19 793.5 Z M 19 24 " clip-rule="nonzero"/></clipPath></defs><g clip-path="url(#6cdfdefd1c)"><path fill="#d32323" d="M 513.652344 408.949219 L 767.070312 155.515625 C 797.125 125.484375 797.125 76.761719 767.070312 46.707031 C 737.019531 16.679688 688.351562 16.679688 658.296875 46.707031 L 404.878906 300.144531 L 151.457031 46.734375 C 121.429688 16.679688 72.710938 16.679688 42.660156 46.734375 C 12.632812 76.761719 12.632812 125.484375 42.660156 155.539062 L 296.078125 408.949219 L 42.042969 663 C 12.015625 693.027344 12.015625 741.75 42.042969 771.78125 C 57.042969 786.808594 76.761719 794.320312 96.429688 794.320312 C 116.097656 794.320312 135.816406 786.808594 150.84375 771.78125 L 404.851562 517.753906 L 658.246094 771.164062 C 673.273438 786.191406 692.964844 793.707031 712.632812 793.707031 C 732.300781 793.707031 751.996094 786.191406 767.019531 771.164062 C 797.074219 741.136719 797.074219 692.414062 767.019531 662.386719 Z M 513.652344 408.949219 " fill-opacity="1" fill-rule="nonzero"/></g></svg>