<svg version="1.1" id="Capa_1" xmlns="http://www.w3.org/2000/svg" xmlns:xlink="http://www.w3.org/1999/xlink" x="0px" y="0px"
	 viewBox="0 0 356.778 356.778" style="enable-background:new 0 0 356.778 356.778;" xml:space="preserve">
<g>
	<polygon style="fill:#FDD44B;" points="194.666,145.364 201.485,145.364 325.38,47.775 322.768,44.46 	"/>
	<polygon style="fill:#FDD44B;" points="251.32,26.029 250.039,25.179 162.568,145.526 164.523,145.526 255.341,20.58 	"/>
	<path style="fill:#F43939;" d="M200.099,284.808c-7.438-2.66-17.639-4.635-30.382-4.635c-29.046,0-44.892,10.254-44.892,15.523
		c0,1.63,1.522,3.739,4.479,5.872c7.439,2.662,17.641,4.638,30.39,4.638c29.047,0,44.893-10.254,44.893-15.522
		C204.587,289.053,203.06,286.943,200.099,284.808z"/>
	<path style="fill:#000000;" d="M199.779,267.511c-10.831-4.762-25.067-7.384-40.085-7.384c-15.017,0-29.252,2.622-40.083,7.384
		c-12.795,5.625-19.842,13.855-19.842,23.173c0,9.318,7.047,17.548,19.842,23.173c10.831,4.761,25.067,7.383,40.083,7.383
		c15.018,0,29.254-2.622,40.084-7.383c12.796-5.625,19.843-13.855,19.843-23.173C219.621,281.366,212.574,273.137,199.779,267.511z
		 M159.694,306.206c-29.046,0-44.891-10.254-44.891-15.522c0-5.269,15.846-15.522,44.891-15.522
		c29.046,0,44.893,10.254,44.893,15.522C204.587,295.952,188.74,306.206,159.694,306.206z"/>
	<path style="fill:#000000;" d="M341.842,44.377l-11.915-15.125c-2.568-3.261-7.295-3.821-10.555-1.254l-119.164,93.864
		l71.713-98.598c2.442-3.357,1.7-8.058-1.657-10.501L254.692,1.437c-1.612-1.173-3.623-1.654-5.593-1.346
		c-1.969,0.311-3.735,1.391-4.908,3.004L140.717,145.364H52.659c-2.196,0-5.161,1.162-6.84,4.425l-31.712,64.017
		c-1.843,3.72-0.321,8.23,3.399,10.073c3.72,1.845,8.23,0.321,10.073-3.4l21.316-43.03L75.96,350.423
		c0.572,3.659,3.723,6.355,7.427,6.355h152.617c3.704,0,6.855-2.696,7.427-6.355l27.064-172.973l21.316,43.03
		c1.842,3.72,6.35,5.244,10.072,3.4c3.721-1.843,5.242-6.352,3.4-10.073l-31.697-63.987c-1.709-3.267-3.958-4.454-6.855-4.454
		H225.78l114.808-90.431c1.566-1.233,2.578-3.039,2.813-5.018C343.636,47.936,343.076,45.944,341.842,44.377z M89.82,341.744
		L67.915,201.746l18.221,37.753c1.255,2.599,3.885,4.25,6.769,4.25h133.578c2.885,0,5.517-1.651,6.77-4.25l18.225-37.759
		l-21.906,140.004H89.82z M221.765,228.714H97.625l-32.974-68.316h190.087L221.765,228.714z M255.341,20.5l-90.818,124.864h-5.217
		l92.621-127.347L255.341,20.5z M201.485,145.364h-6.819L322.768,44.46l2.611,3.315L201.485,145.364z"/>
</g>
<g>
</g>
<g>
</g>
<g>
</g>
<g>
</g>
<g>
</g>
<g>
</g>
<g>
</g>
<g>
</g>
<g>
</g>
<g>
</g>
<g>
</g>
<g>
</g>
<g>
</g>
<g>
</g>
<g>
</g>
</svg>
