<?xml version="1.0" encoding="iso-8859-1"?>
<!-- Generator: Adobe Illustrator 19.0.0, SVG Export Plug-In . SVG Version: 6.00 Build 0)  -->
<svg version="1.1" id="Layer_1" xmlns="http://www.w3.org/2000/svg" xmlns:xlink="http://www.w3.org/1999/xlink" x="0px" y="0px"
	 viewBox="0 0 512.001 512.001" style="enable-background:new 0 0 512.001 512.001;" xml:space="preserve">
<circle style="fill:#FFA789;" cx="255.482" cy="133.486" r="48.684"/>
<g>
	<circle style="fill:#FF9376;" cx="207.325" cy="182.169" r="48.684"/>
	<circle style="fill:#FF9376;" cx="304.692" cy="182.169" r="48.684"/>
</g>
<g>
	<circle style="fill:#FF705B;" cx="158.641" cy="230.853" r="48.684"/>
	<circle style="fill:#FF705B;" cx="256.009" cy="230.853" r="48.684"/>
	<circle style="fill:#FF705B;" cx="353.376" cy="230.853" r="48.684"/>
</g>
<g>
	<circle style="fill:#FA6657;" cx="109.43" cy="279.537" r="48.684"/>
	<circle style="fill:#FA6657;" cx="206.798" cy="279.537" r="48.684"/>
	<circle style="fill:#FA6657;" cx="304.166" cy="279.537" r="48.684"/>
	<circle style="fill:#FA6657;" cx="401.533" cy="279.537" r="48.684"/>
</g>
<g>
	<circle style="fill:#F44A46;" cx="60.746" cy="328.221" r="48.684"/>
	<circle style="fill:#F44A46;" cx="158.114" cy="328.221" r="48.684"/>
	<circle style="fill:#F44A46;" cx="255.482" cy="328.221" r="48.684"/>
	<circle style="fill:#F44A46;" cx="352.849" cy="328.221" r="48.684"/>
	<circle style="fill:#F44A46;" cx="450.217" cy="328.221" r="48.684"/>
</g>
<path style="fill:#ffffff;" d="M453.56,427.198H58.44c-32.276,0-58.44-26.164-58.44-58.44l0,0c0-5.623,4.558-10.181,10.181-10.181
	h491.638c5.623,0,10.181,4.558,10.181,10.181l0,0C512,401.034,485.836,427.198,453.56,427.198z"/>
<path style="fill:#ffffff;" d="M501.819,358.577h-69.589c5.623,0,10.181,4.558,10.181,10.181l0,0c0,32.276-26.164,58.44-58.44,58.44
	h69.589c32.276,0,58.44-26.164,58.44-58.44l0,0C512,363.135,507.442,358.577,501.819,358.577z"/>

<g>
	<g>
		<path d="M495.118,346.999c2.811-6.783,4.202-13.702,4.202-20.898c0-27.974-20.755-51.171-47.643-54.97
			c-3.36-24.241-22.447-43.52-46.601-47.152c-3.404-24.389-22.731-43.737-47.112-47.169c-3.786-26.895-26.939-47.657-54.861-47.657
			c-19.869,0-37.32,10.516-47.103,26.268c-8.349-13.444-22.281-23.072-38.538-25.604c3.562-17.738,19.259-31.142,38.029-31.142
			c8.879,0,17.231,2.917,24.156,8.438c3.59,2.863,8.82,2.272,11.682-1.319c2.862-3.59,2.271-8.82-1.319-11.682
			c-9.758-7.778-22.017-12.062-34.518-12.062c-27.945,0-51.112,20.796-54.869,47.724c-24.116,3.626-43.182,22.85-46.586,47.038
			c-24.336,3.426-43.641,22.71-47.094,47.038c-24.64,3.232-44.227,22.7-47.635,47.285c-26.888,3.804-47.643,27.024-47.643,55.025
			c0,7.204,1.401,14.133,4.235,20.934C6.95,348.21,0,355.85,0,365.096c0,35.761,29.093,64.855,64.855,64.855h382.291
			c35.761,0,64.855-29.093,64.855-64.855C512,355.514,504.536,347.66,495.118,346.999z M443.903,287.197
			c21.389,0,38.791,17.451,38.791,38.903c0,7.21-1.959,13.917-6.123,20.834h-65.336c-4.163-6.912-6.122-13.601-6.122-20.777
			C405.112,304.674,422.514,287.197,443.903,287.197z M396.8,239.983c18.841-0.001,34.581,13.504,38.066,31.341
			c-16.047,2.652-29.788,12.238-38.057,25.584c-8.267-13.346-22.017-22.933-38.074-25.584
			C362.22,253.487,377.96,239.983,396.8,239.983z M388.488,326.099c0,7.21-1.96,13.917-6.123,20.834h-65.336
			c-4.163-6.912-6.122-13.601-6.122-20.777c0-21.482,17.402-38.959,38.791-38.959S388.488,304.648,388.488,326.099z
			 M350.206,192.877c18.771,0.001,34.468,13.405,38.031,31.143c-24.017,3.742-42.965,22.965-46.312,47.109
			c-16.589,2.346-30.836,12.082-39.322,25.777c-8.267-13.346-22.017-22.933-38.074-25.584c3.484-17.836,19.225-31.341,38.065-31.341
			c9.045,0,17.848,3.18,24.788,8.953c3.529,2.934,8.77,2.454,11.707-1.075c2.936-3.53,2.454-8.771-1.075-11.707
			c-7.45-6.198-16.401-10.303-25.869-11.963C315.642,206.368,331.374,192.877,350.206,192.877z M170.323,271.323
			c3.484-17.837,19.225-31.342,38.065-31.342c18.841,0,34.581,13.505,38.066,31.342c-16.047,2.652-29.788,12.238-38.057,25.584
			C200.13,283.561,186.38,273.975,170.323,271.323z M200.075,326.099c0,7.21-1.96,13.917-6.123,20.834h-65.336
			c-4.163-6.912-6.122-13.601-6.122-20.777c0-21.482,17.402-38.959,38.791-38.959S200.075,304.648,200.075,326.099z
			 M255.491,287.197c21.389,0,38.791,17.451,38.791,38.903c0,7.21-1.959,13.917-6.123,20.834h-65.336
			c-4.163-6.912-6.122-13.601-6.122-20.777C216.7,304.674,234.101,287.197,255.491,287.197z M303.103,145.775
			c18.802,0,34.518,13.449,38.046,31.231c-16.044,2.65-29.781,12.209-38.046,25.517c-8.265-13.306-22.001-22.867-38.046-25.517
			C268.585,159.225,284.301,145.775,303.103,145.775z M255.999,192.878c18.771,0,34.468,13.404,38.029,31.142
			c-16.257,2.534-30.189,12.161-38.538,25.604c-8.179-13.17-21.721-22.665-37.553-25.428
			C221.431,206.372,237.167,192.878,255.999,192.878z M208.896,145.775c18.802,0,34.518,13.449,38.046,31.231
			c-16.044,2.65-29.781,12.209-38.046,25.517c-8.265-13.306-22.001-22.867-38.046-25.517
			C174.379,159.225,190.095,145.775,208.896,145.775z M161.793,192.878c18.771,0,34.468,13.404,38.029,31.142
			c-16.257,2.534-30.189,12.161-38.538,25.604c-8.179-13.17-21.721-22.665-37.553-25.428
			C127.225,206.372,142.961,192.878,161.793,192.878z M114.181,239.982c18.841,0,34.581,13.505,38.066,31.342
			c-16.047,2.652-29.788,12.238-38.057,25.584c-8.267-13.346-22.017-22.933-38.074-25.584
			C79.601,253.486,95.341,239.982,114.181,239.982z M67.078,287.197c21.389,0,38.791,17.451,38.791,38.903
			c0,7.21-1.959,13.917-6.123,20.834H34.41c-4.163-6.913-6.122-13.601-6.122-20.777C28.287,304.674,45.69,287.197,67.078,287.197z
			 M447.145,413.327H64.855c-26.595,0-48.23-21.636-48.23-48.23c0-0.849,0.69-1.538,1.538-1.538h11.751h74.329h19.878h74.329h19.878
			h74.329h19.878h74.329h19.878h74.329h12.769c0.849,0,1.538,0.69,1.538,1.538C495.375,391.69,473.739,413.327,447.145,413.327z"/>
	</g>
</g>
<g>
</g>
<g>
</g>
<g>
</g>
<g>
</g>
<g>
</g>
<g>
</g>
<g>
</g>
<g>
</g>
<g>
</g>
<g>
</g>
<g>
</g>
<g>
</g>
<g>
</g>
<g>
</g>
<g>
</g>
</svg>
