<svg version="1.1" id="Layer_1" xmlns="http://www.w3.org/2000/svg" xmlns:xlink="http://www.w3.org/1999/xlink" x="0px" y="0px"
	 viewBox="0 0 512 512" style="enable-background:new 0 0 512 512;" xml:space="preserve">
<path style="fill:#ffb968;" d="M130.145,170.208c37.639-23.652,81.159-36.153,125.856-36.153s88.217,12.501,125.856,36.153
	c25.061,15.748,46.836,35.964,64.34,59.498l48.279-67.845C450.506,74.759,360.235,15.018,255.999,15.018
	S61.494,74.759,17.525,161.86l48.279,67.845C83.309,206.173,105.084,185.956,130.145,170.208z"/>
<path style="fill:#000000;" d="M507.882,155.093c-23.169-45.897-58.458-84.638-102.055-112.033C360.999,14.891,309.189,0,255.999,0
	S151.001,14.891,106.171,43.06C62.577,70.455,27.285,109.196,4.118,155.093c-2.513,4.976-2.062,10.933,1.17,15.475l238.476,335.121
	c2.817,3.96,7.377,6.311,12.235,6.311s9.418-2.35,12.235-6.311l39.156-55.025c4.809-6.758,3.229-16.134-3.529-20.943
	c-6.758-4.81-16.134-3.23-20.943,3.529l-26.92,37.829L84.536,230.129c15.231-18.548,33.22-34.399,53.599-47.205
	c35.242-22.146,75.998-33.851,117.865-33.851c25.797,0,51.167,4.46,75.091,13.052v27.303c0,8.295,6.725,15.018,15.018,15.018
	c8.293,0,15.018-6.724,15.018-15.018v-13.911c4.316,2.326,8.568,4.788,12.737,7.407c8.347,5.246,16.286,11.01,23.807,17.253v85.409
	c0,10.074-8.197,18.273-18.271,18.273c-10.076,0-18.273-8.197-18.273-18.273v-12.54c0-8.295-6.725-15.018-15.018-15.018
	c-8.293,0-15.018,6.724-15.018,15.018v72.651c0,10.074-8.197,18.273-18.273,18.273c-10.074,0-18.271-8.197-18.271-18.273V229.704
	c0-8.295-6.725-15.018-15.018-15.018s-15.018,6.724-15.018,15.018v115.992c0,26.638,21.671,48.309,48.308,48.309
	c26.638,0,48.309-21.671,48.309-48.309v-15.4c5.641,2.314,11.809,3.6,18.273,3.6c26.636,0,48.308-21.671,48.308-48.309v-3.998
	l79.003-111.021C509.944,166.027,510.395,160.069,507.882,155.093z M255.999,119.036c-47.528,0-93.813,13.297-133.845,38.456
	c-20.832,13.09-39.463,28.981-55.587,47.386l-31.45-44.196C79.504,79.864,163.326,30.036,255.999,30.036
	c26.064,0,51.428,3.942,75.413,11.405c5.33,1.658,10.591,3.492,15.777,5.494c2.594,1,5.166,2.044,7.721,3.13
	c51.085,21.701,94.23,60.106,121.972,110.617l-31.45,44.194c-16.122-18.403-34.755-34.294-55.587-47.384
	C349.812,132.335,303.529,119.036,255.999,119.036z"/>
<circle style="fill:#F43939;" cx="195.928" cy="251.36" r="42.051"/>
<path style="fill:#000000;" d="M195.926,308.422c-31.468,0-57.069-25.602-57.069-57.069s25.602-57.069,57.069-57.069
	s57.069,25.602,57.069,57.069S227.396,308.422,195.926,308.422z M195.926,224.32c-14.906,0-27.033,12.127-27.033,27.033
	c0,14.906,12.127,27.033,27.033,27.033c14.906,0,27.033-12.127,27.033-27.033C222.959,236.447,210.832,224.32,195.926,224.32z"/>
<g>
</g>
<g>
</g>
<g>
</g>
<g>
</g>
<g>
</g>
<g>
</g>
<g>
</g>
<g>
</g>
<g>
</g>
<g>
</g>
<g>
</g>
<g>
</g>
<g>
</g>
<g>
</g>
<g>
</g>
</svg>
