<?xml version="1.0" encoding="iso-8859-1"?>
<!-- Generator: Adobe Illustrator 19.0.0, SVG Export Plug-In . SVG Version: 6.00 Build 0)  -->
<svg xmlns="http://www.w3.org/2000/svg" xmlns:xlink="http://www.w3.org/1999/xlink" version="1.1" id="Layer_1" x="0px" y="0px" viewBox="0 0 502 502" style="enable-background:new 0 0 502 502;" xml:space="preserve" width="512" height="512">
<g>
	<g>
		<path style="fill:#FFFFFF;" d="M481.068,259.447C481.068,387.883,378.063,492,251,492S20.932,387.883,20.932,259.447H481.068z"/>
		<path style="fill:#FFFFFF;" d="M458.914,283.299c14.198-7.229,22.153-15.315,22.153-23.852    c0-30.737-103.005-55.654-230.068-55.654S20.932,228.711,20.932,259.447c0,8.536,7.955,16.622,22.153,23.852    c36.926-18.802,116.14-31.802,207.915-31.802S421.988,264.497,458.914,283.299z"/>
		<path style="fill:#F43939;" d="M458.914,283.299c-36.926-18.802-116.14-31.802-207.915-31.802s-170.989,13-207.915,31.802    c36.926,18.802,116.14,31.802,207.915,31.802S421.988,302.101,458.914,283.299z"/>
	</g>
	<g>
		<path d="M416.034,210.375C371.833,199.683,313.222,193.794,251,193.794c-62.222,0-120.832,5.889-165.034,16.581    c-49.789,12.044-75.034,28.554-75.034,49.072c0,64.768,24.958,125.665,70.276,171.473C126.555,476.757,186.855,502,251,502    c64.145,0,124.445-25.243,169.792-71.08c45.318-45.808,70.276-106.705,70.276-171.473    C491.068,238.929,465.823,222.419,416.034,210.375z M90.668,229.814c42.707-10.331,99.647-16.021,160.332-16.021    s117.625,5.689,160.332,16.021c47.251,11.43,59.736,24.382,59.736,29.633c0,2.724-3.354,7.318-12.428,12.619    C417.292,253.143,338.672,241.497,251,241.497c-87.672,0-166.292,11.646-207.641,30.569c-9.073-5.301-12.427-9.896-12.427-12.619    C30.932,254.196,43.417,241.244,90.668,229.814z M432.135,283.3c-41.734,13.494-109,21.801-181.135,21.801    c-72.136,0-139.401-8.307-181.135-21.801C111.598,269.805,178.86,261.497,251,261.497    C323.138,261.497,390.401,269.805,432.135,283.3z M251,482c-111.408,0-203.734-84.158-218.111-192.91    c1.785,1.059,3.658,2.101,5.659,3.12C78.392,312.498,159.799,325.101,251,325.101c91.2,0,172.607-12.603,212.452-32.891    c2.001-1.019,3.874-2.062,5.659-3.12C454.734,397.842,362.408,482,251,482z"/>
		<path d="M180.129,103.716c-5.523,0-10,4.478-10,10c0,32.34,26.311,58.65,58.65,58.65c5.523,0,10-4.478,10-10s-4.477-10-10-10    c-21.312,0-38.65-17.339-38.65-38.65C190.129,108.193,185.652,103.716,180.129,103.716z"/>
		<path d="M248.026,68.115c21.312,0,38.651,17.339,38.651,38.65c0,5.522,4.478,10,10,10s10-4.478,10-10    c0-32.34-26.311-58.65-58.651-58.65c-5.523,0-10,4.478-10,10S242.503,68.115,248.026,68.115z"/>
		<path d="M131.479,20c21.312,0,38.65,17.339,38.65,38.65c0,5.522,4.477,10,10,10s10-4.478,10-10c0-32.34-26.311-58.65-58.65-58.65    c-5.523,0-10,4.478-10,10S125.956,20,131.479,20z"/>
		<path d="M184.654,432.499c-30.679-12.041-57.684-32.314-78.093-58.629c-3.385-4.363-9.666-5.157-14.031-1.772    c-4.364,3.385-5.158,9.666-1.773,14.03c22.616,29.159,52.559,51.632,86.59,64.988c1.2,0.471,2.435,0.694,3.651,0.694    c3.992,0,7.764-2.408,9.311-6.35C192.327,440.32,189.795,434.517,184.654,432.499z"/>
		<path d="M87.904,344.509c-2.685-5.256-5.146-10.701-7.315-16.186c-2.031-5.136-7.84-7.652-12.977-5.621    c-5.136,2.03-7.652,7.841-5.622,12.977c2.403,6.075,5.129,12.107,8.104,17.93c1.769,3.461,5.275,5.452,8.913,5.452    c1.531,0,3.085-0.353,4.542-1.097C88.467,355.451,90.417,349.427,87.904,344.509z"/>
	</g>
</g>















</svg>
