<?xml version="1.0" encoding="iso-8859-1"?>
<!-- Generator: Adobe Illustrator 19.0.0, SVG Export Plug-In . SVG Version: 6.00 Build 0)  -->
<svg version="1.1" id="Layer_1" xmlns="http://www.w3.org/2000/svg" xmlns:xlink="http://www.w3.org/1999/xlink" x="0px" y="0px"
	 viewBox="0 0 512 512" style="enable-background:new 0 0 512 512;" xml:space="preserve">
<circle style="fill:#FFDC78;" cx="324.409" cy="281.653" r="59.858"/>
<circle style="fill:#FFCF65;" cx="324.409" cy="281.653" r="25.653"/>
<circle style="fill:#FFDC78;" cx="187.591" cy="281.653" r="94.063"/>
<circle style="fill:#FFCF65;" cx="187.591" cy="281.653" r="59.858"/>
<circle style="fill:#FFDC78;" cx="187.591" cy="281.653" r="25.653"/>
<path style="fill:#F43939;" d="M495.432,281.654C468.544,395.927,394.1,452.076,363.482,470.868
	c-8.025,4.925-17.242,7.462-26.658,7.462H175.178c-9.417,0-18.633-2.535-26.658-7.462C117.9,452.076,43.456,395.927,16.568,281.654"
	/>
<path d="M239.432,136.317c0,13.495,5.716,20.635,10.311,26.372c3.943,4.925,6.792,8.484,6.792,16.351
	c0,4.427,3.589,8.017,8.017,8.017c4.427,0,8.017-3.589,8.017-8.017c0-13.495-5.716-20.634-10.309-26.372
	c-3.943-4.925-6.793-8.485-6.793-16.351c0-7.878,2.851-11.441,6.795-16.372c4.592-5.741,10.307-12.886,10.307-26.388
	c0-13.508-5.714-20.656-10.306-26.401c-3.945-4.935-6.796-8.502-6.796-16.389c0-4.427-3.589-8.017-8.017-8.017
	s-8.017,3.589-8.017,8.017c0,13.508,5.714,20.656,10.306,26.401c3.945,4.936,6.796,8.503,6.796,16.389
	c0,7.878-2.851,11.441-6.795,16.372C245.148,115.671,239.432,122.815,239.432,136.317z"/>
<path d="M282.705,144.325c2.545,0,4.814-1.188,6.284-3.038c5.786-7.233,17.783-22.259,17.783-47.731
	c0-10.347-1.989-20.101-5.913-28.992c-1.787-4.05-6.519-5.884-10.571-4.097c-4.051,1.787-5.884,6.52-4.097,10.571
	c3.018,6.838,4.548,14.414,4.548,22.517c0,19.789-8.866,30.959-14.22,37.653c-1.144,1.385-1.831,3.162-1.831,5.1
	C274.689,140.736,278.278,144.325,282.705,144.325z"/>
<path d="M218.402,169.898c1.073,0,2.165-0.217,3.211-0.676c4.055-1.777,5.903-6.503,4.128-10.559
	c-2.973-6.79-4.48-14.308-4.48-22.347c0-19.871,8.944-31.052,14.29-37.736c0.144-0.181,0.281-0.368,0.409-0.56
	c1.796-2.693,1.787-6.255-0.009-8.948c-2.455-3.683-7.434-4.679-11.116-2.223c-0.949,0.633-1.719,1.432-2.298,2.334
	c-5.941,7.445-17.31,22.342-17.31,47.133c0,10.267,1.96,19.949,5.827,28.778C212.372,168.104,215.315,169.898,218.402,169.898z"/>
<path d="M503.983,273.637H391.794c-1.463-12.376-6.263-23.739-13.482-33.165l106.137-125.418c2.86-3.38,2.439-8.438-0.941-11.298
	s-8.439-2.438-11.298,0.941L367.083,228.923c-8.828-7.158-19.481-12.139-31.141-14.144L408.79,36.706
	c1.676-4.098-0.286-8.779-4.385-10.455c-4.097-1.677-8.778,0.288-10.455,4.385l-75.021,183.385
	c-16.123,1.296-30.668,8.242-41.654,18.863c-17.749-32.677-51.941-53.308-89.684-53.308c-53.589,0-97.664,41.508-101.766,94.063
	H8.017c-4.427,0-8.017,3.589-8.017,8.017c0,4.427,3.589,8.017,8.017,8.017h2.267c12.9,50.73,36.302,95.531,69.626,133.24
	c27.99,31.672,55.72,49.912,69.759,57.965c6.239,3.58,13.427,5.472,20.788,5.472h171.086c7.36,0,14.549-1.892,20.788-5.472
	c14.039-8.054,41.77-26.294,69.76-57.965c33.325-37.708,56.726-82.509,69.626-133.24h2.267c4.427,0,8.017-3.589,8.017-8.017
	C512,277.227,508.411,273.637,503.983,273.637z M375.628,273.637h-18.521c-0.49-1.996-1.159-3.92-1.987-5.759l12.519-14.793
	C371.67,259.164,374.459,266.134,375.628,273.637z M308.719,273.637c2.926-5.701,8.853-9.62,15.69-9.62
	c3.802,0,7.319,1.222,10.202,3.276l-5.368,6.344H308.719z M324.378,229.813c0.01,0,0.018,0.001,0.028,0.001
	c0.007,0,0.015-0.001,0.021-0.001c12.207,0.004,23.432,4.258,32.298,11.348l-11.738,13.87c-5.695-4.412-12.833-7.048-20.578-7.048
	c-15.804,0-29.091,10.947-32.699,25.653H273.19C277.054,248.855,298.533,229.828,324.378,229.813z M187.591,195.608
	c34.135,0,64.824,20.015,78.646,51.116c-4.846,8.041-8.061,17.165-9.213,26.914h-2.048c-3.981-33.659-32.673-59.858-67.385-59.858
	s-63.405,26.199-67.385,59.858h-18.274C105.989,229.937,142.849,195.608,187.591,195.608z M220.289,273.637
	c-3.606-14.707-16.895-25.653-32.699-25.653s-29.091,10.947-32.699,25.653h-18.521c3.865-24.792,25.359-43.825,51.219-43.825
	s47.354,19.033,51.219,43.825H220.289z M203.281,273.637h-31.38c2.926-5.701,8.853-9.62,15.69-9.62
	C194.43,264.017,200.356,267.936,203.281,273.637z M354.352,466.969c-3.814,2.188-8.243,3.345-12.809,3.345H170.458
	c-4.565,0-8.995-1.157-12.81-3.345C134.127,453.475,56.832,401.583,26.857,289.67h458.286
	C455.168,401.583,377.873,453.475,354.352,466.969z"/>
<g>
</g>
<g>
</g>
<g>
</g>
<g>
</g>
<g>
</g>
<g>
</g>
<g>
</g>
<g>
</g>
<g>
</g>
<g>
</g>
<g>
</g>
<g>
</g>
<g>
</g>
<g>
</g>
<g>
</g>
</svg>
