<?xml version="1.0" encoding="iso-8859-1"?>
<!-- Generator: Adobe Illustrator 18.0.0, SVG Export Plug-In . SVG Version: 6.00 Build 0)  -->
<!DOCTYPE svg PUBLIC "-//W3C//DTD SVG 1.1//EN" "http://www.w3.org/Graphics/SVG/1.1/DTD/svg11.dtd">
<svg version="1.1" id="Capa_1" xmlns="http://www.w3.org/2000/svg" xmlns:xlink="http://www.w3.org/1999/xlink" x="0px" y="0px"
	 viewBox="0 0 466.918 466.918" style="enable-background:new 0 0 466.918 466.918;" xml:space="preserve">
<g>
	<path d="M389.698,256.663L389.698,256.663l-69.655-69.654c-9.139-9.14-20.759-14.896-33.343-16.641
		c24.85-17.261,40.087-45.817,40.26-76.329c0.137-24.294-9.097-47.414-26.001-65.1c-16.913-17.695-39.592-27.948-63.859-28.87
		c-25.692-0.973-50.007,8.281-68.48,26.066c-18.481,17.793-28.66,41.717-28.66,67.365c0,30.737,15.241,59.497,40.261,76.867
		c-12.583,1.745-24.204,7.501-33.343,16.641l-69.654,69.653c-6.897,6.899-10.696,16.068-10.696,25.819
		c0,9.752,3.799,18.92,10.693,25.807c6.886,6.899,16.053,10.698,25.813,10.698c9.754,0,18.924-3.798,25.82-10.694l22.159-22.159
		l-14.412,140.339c-1.056,10.315,2.324,20.646,9.272,28.34c6.945,7.692,16.873,12.104,27.237,12.104
		c9.049,0,17.736-3.32,24.459-9.346c6.72-6.009,10.981-14.255,12.005-23.225l8.953-68.213c0.005-0.035,0.009-0.07,0.013-0.105
		c0.851-7.608,7.265-13.346,14.921-13.346c7.655,0,14.07,5.738,14.922,13.346c0.004,0.035,0.008,0.07,0.013,0.104l8.953,68.214
		c2.107,18.572,17.774,32.57,36.464,32.57c20.24,0,36.706-16.446,36.706-36.662c0-1.258-0.066-2.536-0.197-3.785l-14.412-140.337
		l22.16,22.159c6.897,6.898,16.067,10.697,25.818,10.697c9.752,0,18.919-3.8,25.812-10.698c6.896-6.896,10.693-16.062,10.693-25.809
		C400.391,272.73,396.594,263.56,389.698,256.663z M103.032,307.987c-6.817,0-13.22-2.652-18.032-7.475
		c-4.82-4.815-7.474-11.218-7.474-18.031c0-6.813,2.654-13.22,7.475-18.041l2.628-2.628l5.968,1.722
		c4.269,1.224,8.255,5.213,9.479,9.489c1.112,3.877,3.325,7.551,6.397,10.622c1.468,1.468,3.109,2.762,4.895,3.854
		c1.849,1.122,3.775,1.977,5.733,2.543c2.493,0.718,4.951,2.455,6.795,4.651l-5.82,5.82
		C116.256,305.334,109.847,307.987,103.032,307.987z M198.66,432.966c-0.005,0.033-0.009,0.066-0.013,0.1
		c-0.71,6.299-3.697,12.09-8.416,16.311c-4.706,4.218-10.787,6.541-17.122,6.541c-7.258,0-14.21-3.089-19.073-8.476
		c-4.506-4.99-6.863-11.562-6.601-18.242l4.32-2.389c3.891-2.152,9.536-2.152,13.421-0.002c3.527,1.956,7.689,2.989,12.036,2.989
		c4.242,0,8.319-0.99,11.808-2.865c0.079-0.039,0.157-0.08,0.235-0.123c2.959-1.638,6.927-2.022,10.367-1.169L198.66,432.966z
		 M293.811,455.918c-13.1,0-24.078-9.822-25.538-22.848c-0.004-0.034-0.008-0.069-0.013-0.103l-0.961-7.324
		c3.441-0.854,7.41-0.47,10.37,1.168c0.074,0.041,0.149,0.08,0.226,0.118c7.168,3.867,16.718,3.828,23.847-0.116
		c1.885-1.041,4.268-1.614,6.711-1.614c2.456,0,4.84,0.572,6.718,1.613l4.32,2.389c0.015,0.353,0.028,0.706,0.028,1.056
		C319.517,444.406,307.986,455.918,293.811,455.918z M303.385,271.866l14.812,144.225c-2.984-1.237-6.303-1.893-9.744-1.893
		c-4.334,0-8.493,1.032-12.033,2.987c-3.89,2.153-9.529,2.153-13.411,0.002c-0.076-0.042-0.153-0.083-0.231-0.121
		c-5.026-2.706-11.211-3.491-16.914-2.369l-6.556-49.949c-1.5-13.154-12.602-23.065-25.847-23.065s-24.347,9.913-25.847,23.066
		l-6.556,49.95c-5.701-1.122-11.883-0.339-16.907,2.366c-0.076,0.038-0.152,0.077-0.227,0.118c-1.886,1.042-4.27,1.615-6.712,1.615
		c-2.449,0-4.83-0.572-6.707-1.612c-6.462-3.576-14.911-3.931-21.781-1.09l14.811-144.23c0.237-2.315-1.008-4.53-3.109-5.529
		c-2.106-1-4.607-0.567-6.251,1.078l-19.471,19.471c-3.154-3.501-7.218-6.163-11.553-7.411c-1.02-0.295-2.055-0.759-3.06-1.369
		c-1.03-0.63-1.985-1.382-2.84-2.238c-1.732-1.731-3.012-3.818-3.601-5.874c-2.268-7.919-9.108-14.765-17.016-17.031l-0.121-0.035
		l58.14-58.14c9.018-9.017,21.005-13.982,33.76-13.982c3.85,0,7.1-2.497,8.087-6.212c0.99-3.724-0.594-7.514-3.943-9.431
		c-25.659-14.679-41.599-42.138-41.599-71.661c0-22.631,8.981-43.74,25.29-59.441c16.299-15.692,37.74-23.861,60.433-22.999
		c21.396,0.813,41.398,9.861,56.325,25.478c14.923,15.613,23.074,36.011,22.953,57.437c-0.165,29.317-16.098,56.59-41.578,71.175
		c-3.357,1.921-4.947,5.718-3.955,9.448c0.986,3.711,4.235,6.206,8.084,6.206c12.751,0,24.738,4.965,33.755,13.981l58.146,58.147
		l-0.093,0.027c-7.907,2.262-14.752,9.105-17.033,17.029c-0.592,2.059-1.871,4.147-3.603,5.879c-1.688,1.688-3.728,2.95-5.756,3.566
		c-0.046,0.012-0.092,0.025-0.138,0.038c-4.343,1.25-8.411,3.916-11.567,7.419l-19.478-19.477c-1.645-1.644-4.146-2.078-6.251-1.078
		C304.392,267.336,303.147,269.55,303.385,271.866z M381.918,300.517c-4.815,4.819-11.219,7.474-18.031,7.474
		s-13.22-2.655-18.041-7.476l-5.815-5.815c1.813-2.16,4.218-3.876,6.668-4.617c0.051-0.013,0.102-0.027,0.152-0.042
		c3.881-1.124,7.55-3.334,10.609-6.394c3.072-3.072,5.284-6.745,6.396-10.618c1.232-4.28,5.223-8.273,9.499-9.497l5.944-1.71
		l2.619,2.619c4.819,4.819,7.473,11.227,7.473,18.042C389.391,289.292,386.738,295.696,381.918,300.517z"/>
	<circle cx="189.459" cy="102.484" r="8.398"/>
	<circle cx="277.459" cy="102.484" r="8.398"/>
	<path d="M198.969,70.393c2.148,2.148,5.63,2.148,7.778,0c2.147-2.148,2.147-5.63-0.001-7.778c-9.533-9.532-25.043-9.532-34.574,0
		c-2.148,2.148-2.148,5.63,0,7.778c1.073,1.074,2.481,1.611,3.889,1.611s2.815-0.537,3.889-1.611
		C185.193,65.151,193.724,65.149,198.969,70.393z"/>
	<path d="M264.06,72.004c1.407,0,2.815-0.537,3.889-1.611c5.244-5.242,13.775-5.244,19.02,0c2.148,2.148,5.63,2.148,7.778,0
		c2.147-2.148,2.147-5.63-0.001-7.778c-9.533-9.532-25.043-9.532-34.574,0c-2.148,2.148-2.148,5.63,0,7.778
		C261.245,71.467,262.653,72.004,264.06,72.004z"/>
	<path d="M233.459,195.102c-11.253,0-20.408,9.155-20.408,20.408s9.155,20.408,20.408,20.408s20.408-9.155,20.408-20.408
		S244.712,195.102,233.459,195.102z M233.459,224.918c-5.188,0-9.408-4.22-9.408-9.408s4.221-9.408,9.408-9.408
		s9.408,4.221,9.408,9.408S238.646,224.918,233.459,224.918z"/>
	<path d="M233.459,261.677c-11.253,0-20.408,9.155-20.408,20.408s9.155,20.408,20.408,20.408s20.408-9.155,20.408-20.408
		S244.712,261.677,233.459,261.677z M233.459,291.494c-5.188,0-9.408-4.221-9.408-9.408s4.221-9.408,9.408-9.408
		s9.408,4.221,9.408,9.408S238.646,291.494,233.459,291.494z"/>
	<path d="M299.537,327.776c1.454-2.656,0.482-5.99-2.167-7.457c-8.915-4.935-20.898-4.936-29.831,0.006
		c-5.555,3.074-13.614,3.073-19.167-0.001c-8.919-4.94-20.907-4.94-29.826,0c-5.555,3.074-13.614,3.075-19.181-0.005
		c-8.916-4.936-20.898-4.937-29.818,0c-2.658,1.471-3.62,4.817-2.149,7.475c1.472,2.658,4.818,3.62,7.476,2.149
		c5.556-3.074,13.616-3.073,19.178,0.006c4.459,2.468,9.684,3.702,14.909,3.702c5.227,0,10.454-1.235,14.914-3.705
		c5.554-3.075,13.614-3.076,19.17,0c8.919,4.939,20.905,4.939,29.834-0.003c5.554-3.073,13.614-3.073,19.222,0.03
		C294.762,331.418,298.083,330.432,299.537,327.776z"/>
	<path d="M201.932,130.206l-0.106,0.139c-2.614,3.369-3.571,7.689-2.627,11.851c0.936,4.122,3.629,7.567,7.391,9.453
		c8.178,4.1,17.149,6.149,26.12,6.149s17.942-2.05,26.12-6.149c3.762-1.886,6.455-5.331,7.391-9.452
		c0.944-4.162-0.013-8.481-2.65-11.882l-0.083-0.108c-4.11-5.297-11.491-6.964-17.554-3.964c-8.279,4.099-18.167,4.099-26.448,0
		C213.427,123.241,206.043,124.909,201.932,130.206z M210.624,136.949c0.93-1.2,2.566-1.55,3.981-0.849
		c11.337,5.613,24.873,5.612,36.208,0c1.412-0.7,3.051-0.352,3.962,0.821l0.128,0.165c0.589,0.759,0.804,1.734,0.59,2.675
		c-0.12,0.529-0.486,1.499-1.593,2.053c-13.27,6.652-29.111,6.652-42.381,0c-1.106-0.555-1.473-1.524-1.593-2.053
		c-0.214-0.94,0.002-1.915,0.591-2.674L210.624,136.949z"/>
	<path d="M169.54,361.037c-3.012-0.334-5.738,1.84-6.074,4.859l-3,27c-0.335,3.019,1.841,5.738,4.859,6.074
		c0.206,0.023,0.411,0.034,0.614,0.034c2.766,0,5.147-2.081,5.46-4.893l3-27C174.734,364.091,172.558,361.372,169.54,361.037z"/>
	<path d="M191.992,361.037c-3.013-0.334-5.738,1.84-6.074,4.859l-3,27c-0.335,3.019,1.841,5.738,4.859,6.074
		c0.206,0.023,0.411,0.034,0.614,0.034c2.766,0,5.147-2.081,5.46-4.893l3-27C197.186,364.091,195.011,361.372,191.992,361.037z"/>
	<path d="M297.378,361.037c-3.019,0.335-5.194,3.055-4.859,6.074l3,27c0.313,2.813,2.694,4.893,5.46,4.893
		c0.203,0,0.408-0.011,0.614-0.034c3.019-0.335,5.194-3.055,4.859-6.074l-3-27C303.117,362.876,300.393,360.703,297.378,361.037z"/>
	<path d="M281,365.896c-0.335-3.02-3.058-5.193-6.074-4.859c-3.019,0.335-5.194,3.055-4.859,6.074l3,27
		c0.313,2.813,2.694,4.893,5.46,4.893c0.203,0,0.408-0.011,0.614-0.034c3.019-0.335,5.194-3.055,4.859-6.074L281,365.896z"/>
</g>
<g>
</g>
<g>
</g>
<g>
</g>
<g>
</g>
<g>
</g>
<g>
</g>
<g>
</g>
<g>
</g>
<g>
</g>
<g>
</g>
<g>
</g>
<g>
</g>
<g>
</g>
<g>
</g>
<g>
</g>
</svg>
