<?xml version="1.0" encoding="iso-8859-1"?>
<!-- Generator: Adobe Illustrator 19.0.0, SVG Export Plug-In . SVG Version: 6.00 Build 0)  -->
<svg version="1.1" id="Layer_1" xmlns="http://www.w3.org/2000/svg" xmlns:xlink="http://www.w3.org/1999/xlink" x="0px" y="0px"
	 viewBox="0 0 463 463" style="enable-background:new 0 0 463 463;" xml:space="preserve">
<g>
	<g>
		<path d="M447,313.234V191.5C447,116.785,386.215,56,311.5,56H239V45.766c9.29-3.138,16-11.93,16-22.266
			C255,10.542,244.458,0,231.5,0S208,10.542,208,23.5c0,10.336,6.71,19.128,16,22.266V56h-72.5C76.785,56,16,116.785,16,191.5
			v121.734c-9.29,3.138-16,11.93-16,22.266C0,348.458,10.542,359,23.5,359h175.518c-1.062,6.561-3.175,16.306-7.252,25.908
			C183.004,405.539,169.457,416,151.5,416c-12.958,0-23.5,10.542-23.5,23.5s10.542,23.5,23.5,23.5h160
			c12.958,0,23.5-10.542,23.5-23.5S324.458,416,311.5,416c-17.957,0-31.504-10.461-40.266-31.092
			c-4.078-9.603-6.191-19.349-7.253-25.908H439.5c12.958,0,23.5-10.542,23.5-23.5C463,325.164,456.29,316.372,447,313.234z
			 M223,23.5c0-4.687,3.813-8.5,8.5-8.5s8.5,3.813,8.5,8.5s-3.813,8.5-8.5,8.5S223,28.187,223,23.5z M31,191.5
			C31,125.056,85.056,71,151.5,71h160C377.944,71,432,125.056,432,191.5V312h-33V167.5c0-8.547-6.953-15.5-15.5-15.5h-90.097
			c1.027-2.638,1.597-5.503,1.597-8.5c0-12.958-10.542-23.5-23.5-23.5c-4.041,0-7.846,1.025-11.17,2.829
			C255.443,111.753,244.363,104,231.5,104c-12.863,0-23.943,7.753-28.83,18.829c-3.324-1.804-7.13-2.829-11.17-2.829
			c-12.958,0-23.5,10.542-23.5,23.5c0,2.997,0.57,5.862,1.597,8.5H79.5c-8.547,0-15.5,6.953-15.5,15.5V312H31V191.5z M96,231v8.5
			c0,2.997,0.57,5.862,1.597,8.5H79v-17H96z M79,216v-8.5c0-4.687,3.813-8.5,8.5-8.5s8.5,3.813,8.5,8.5v8.5H79z M160,263v8.5
			c0,2.997,0.57,5.862,1.597,8.5H79v-17H160z M160,231v17h-18.597c1.027-2.638,1.597-5.503,1.597-8.5V231H160z M143,216v-8.5
			c0-4.687,3.813-8.5,8.5-8.5s8.5,3.813,8.5,8.5v8.5H143z M384,295v17H79v-17H384z M288,231v17h-81v-17H288z M207,216v-8.5
			c0-4.687,3.813-8.5,8.5-8.5s8.5,3.813,8.5,8.5c0,2.997,0.57,5.862,1.597,8.5H207z M269.403,216c1.027-2.638,1.597-5.503,1.597-8.5
			c0-4.687,3.813-8.5,8.5-8.5s8.5,3.813,8.5,8.5v8.5H269.403z M288,263v8.5c0,2.997,0.57,5.862,1.597,8.5h-84.195
			c1.028-2.638,1.598-5.503,1.598-8.5V263H288z M333.403,280c1.027-2.638,1.597-5.503,1.597-8.5V263h49v17H333.403z M335,248v-17h49
			v17H335z M335,216v-8.5c0-4.687,3.813-8.5,8.5-8.5s8.5,3.813,8.5,8.5c0,2.997,0.57,5.862,1.597,8.5H335z M375.5,216
			c-4.687,0-8.5-3.813-8.5-8.5c0-12.958-10.542-23.5-23.5-23.5S320,194.542,320,207.5v64c0,4.687-3.813,8.5-8.5,8.5
			s-8.5-3.813-8.5-8.5v-64c0-12.958-10.542-23.5-23.5-23.5S256,194.542,256,207.5c0,4.687-3.813,8.5-8.5,8.5s-8.5-3.813-8.5-8.5
			c0-12.958-10.542-23.5-23.5-23.5S192,194.542,192,207.5v64c0,4.687-3.813,8.5-8.5,8.5s-8.5-3.813-8.5-8.5v-64
			c0-12.958-10.542-23.5-23.5-23.5S128,194.542,128,207.5v32c0,4.687-3.813,8.5-8.5,8.5s-8.5-3.813-8.5-8.5v-32
			c0-12.958-10.542-23.5-23.5-23.5c-2.997,0-5.862,0.57-8.5,1.597V167.5c0-0.275,0.224-0.5,0.5-0.5h304c0.276,0,0.5,0.225,0.5,0.5
			v24v16C384,212.187,380.187,216,375.5,216z M183,143.5c0-4.687,3.813-8.5,8.5-8.5s8.5,3.813,8.5,8.5s-3.813,8.5-8.5,8.5
			S183,148.187,183,143.5z M215,135.5c0-9.098,7.402-16.5,16.5-16.5s16.5,7.402,16.5,16.5c0,9.098-7.402,16.5-16.5,16.5
			S215,144.598,215,135.5z M263,143.5c0-4.687,3.813-8.5,8.5-8.5s8.5,3.813,8.5,8.5s-3.813,8.5-8.5,8.5S263,148.187,263,143.5z
			 M311.5,431c4.687,0,8.5,3.813,8.5,8.5s-3.813,8.5-8.5,8.5h-160c-4.687,0-8.5-3.813-8.5-8.5s3.813-8.5,8.5-8.5H311.5z
			 M274.017,416h-85.034c6.691-6.5,12.317-15.058,16.744-25.595c5.088-12.111,7.432-24.109,8.475-31.405h34.596
			c1.043,7.296,3.387,19.294,8.475,31.405C261.7,400.942,267.326,409.5,274.017,416z M439.5,344h-416c-4.687,0-8.5-3.813-8.5-8.5
			s3.813-8.5,8.5-8.5h416c4.687,0,8.5,3.813,8.5,8.5S444.187,344,439.5,344z"/>
	</g>
</g>
<g>
</g>
<g>
</g>
<g>
</g>
<g>
</g>
<g>
</g>
<g>
</g>
<g>
</g>
<g>
</g>
<g>
</g>
<g>
</g>
<g>
</g>
<g>
</g>
<g>
</g>
<g>
</g>
<g>
</g>
</svg>
