<?xml version="1.0" encoding="iso-8859-1"?>
<!-- Generator: Adobe Illustrator 19.0.0, SVG Export Plug-In . SVG Version: 6.00 Build 0)  -->
<svg version="1.1" id="Layer_1" xmlns="http://www.w3.org/2000/svg" xmlns:xlink="http://www.w3.org/1999/xlink" x="0px" y="0px"
	 viewBox="0 0 463 463" style="enable-background:new 0 0 463 463;" xml:space="preserve">
<g>
	<g>
		<g>
			<path d="M188.016,32c-4.142,0-7.5,3.357-7.5,7.5v64c0,4.143,3.358,7.5,7.5,7.5c4.142,0,7.5-3.357,7.5-7.5v-64
				C195.516,35.358,192.158,32,188.016,32z"/>
			<path d="M212.016,32c-4.142,0-7.5,3.357-7.5,7.5v56c0,4.143,3.358,7.5,7.5,7.5c4.142,0,7.5-3.357,7.5-7.5v-56
				C219.516,35.358,216.158,32,212.016,32z"/>
			<path d="M164.016,32c-4.142,0-7.5,3.357-7.5,7.5v56c0,4.143,3.358,7.5,7.5,7.5c4.142,0,7.5-3.357,7.5-7.5v-56
				C171.516,35.358,168.158,32,164.016,32z"/>
			<path d="M220.016,0h-64c-12.958,0-23.5,10.542-23.5,23.5v64c0,28.058,20.933,51.305,48,54.979V304h-0.5
				c-8.547,0-15.5,6.953-15.5,15.5v120c0,12.958,10.542,23.5,23.5,23.5c12.958,0,23.5-10.542,23.5-23.5v-120
				c0-8.547-6.953-15.5-15.5-15.5h-0.5V142.48c27.067-3.675,48-26.921,48-54.979v-64C243.516,10.542,232.974,0,220.016,0z
				 M196.016,319c0.276,0,0.5,0.225,0.5,0.5v120c0,4.687-3.813,8.5-8.5,8.5c-4.687,0-8.5-3.813-8.5-8.5v-120
				c0-0.275,0.224-0.5,0.5-0.5H196.016z M228.516,87.5c0,22.332-18.168,40.5-40.5,40.5c-22.332,0-40.5-18.168-40.5-40.5v-64
				c0-4.687,3.813-8.5,8.5-8.5h64c4.687,0,8.5,3.813,8.5,8.5V87.5z"/>
			<path d="M324.112,135.591c4.424-4.709,6.73-11.108,6.327-17.557L323.502,7.033c-0.258-4.134-3.82-7.275-7.953-7.018
				c-4.134,0.259-7.276,3.819-7.018,7.953l6.938,111.002c0.148,2.367-0.665,4.622-2.289,6.351c-1.624,1.728-3.824,2.68-6.195,2.68
				h-13.938c-2.371,0-4.571-0.952-6.195-2.68c-1.624-1.729-2.437-3.983-2.289-6.351l6.938-111.002
				c0.258-4.134-2.883-7.694-7.018-7.953c-4.125-0.261-7.694,2.883-7.953,7.018l-6.938,111.002
				c-0.403,6.448,1.903,12.848,6.327,17.557c4.302,4.579,10.326,7.251,16.596,7.395V304h-0.5c-8.547,0-15.5,6.953-15.5,15.5v120
				c0,12.958,10.542,23.5,23.5,23.5s23.5-10.542,23.5-23.5v-120c0-8.547-6.953-15.5-15.5-15.5h-0.5V142.987
				C313.787,142.843,319.81,140.17,324.112,135.591z M308.016,319c0.276,0,0.5,0.225,0.5,0.5v120c0,4.687-3.813,8.5-8.5,8.5
				s-8.5-3.813-8.5-8.5v-120c0-0.275,0.224-0.5,0.5-0.5H308.016z"/>
		</g>
	</g>
</g>
<g>
</g>
<g>
</g>
<g>
</g>
<g>
</g>
<g>
</g>
<g>
</g>
<g>
</g>
<g>
</g>
<g>
</g>
<g>
</g>
<g>
</g>
<g>
</g>
<g>
</g>
<g>
</g>
<g>
</g>
</svg>
