<?xml version="1.0" encoding="iso-8859-1"?>
<!-- Generator: Adobe Illustrator 19.0.0, SVG Export Plug-In . SVG Version: 6.00 Build 0)  -->
<svg version="1.1" id="Layer_1" xmlns="http://www.w3.org/2000/svg" xmlns:xlink="http://www.w3.org/1999/xlink" x="0px" y="0px"
	 viewBox="0 0 463.057 463.057" style="enable-background:new 0 0 463.057 463.057;" xml:space="preserve">
<g>
	<g>
		<g>
			<path d="M343.029,311.528v-16.5h8.5c4.142,0,7.5-3.358,7.5-7.5c0-4.142-3.358-7.5-7.5-7.5h-13.594l3-9h2.594
				c4.142,0,7.5-3.358,7.5-7.5c0-4.142-3.358-7.5-7.5-7.5h-7.846c-0.005,0-0.01,0-0.015,0h-48.263c-0.012,0-0.024,0-0.036,0h-7.84
				c-4.142,0-7.5,3.358-7.5,7.5c0,4.142,3.358,7.5,7.5,7.5h2.594l3,9h-46.094v-169h212.708c5.5,0,10.067-3.771,11.107-9.172
				c1.04-5.401-1.8-10.599-6.906-12.642L234.382,0.591c-0.245-0.101-0.494-0.187-0.747-0.261c-0.002-0.001-0.005-0.001-0.007-0.002
				c-0.226-0.065-0.454-0.121-0.685-0.165c-0.058-0.011-0.117-0.016-0.176-0.025c-0.175-0.029-0.351-0.059-0.527-0.076
				c-0.223-0.021-0.446-0.031-0.67-0.032c-0.014,0-0.028-0.002-0.041-0.002c-0.238,0-0.475,0.011-0.712,0.034
				c-0.155,0.015-0.309,0.042-0.463,0.066c-0.08,0.013-0.161,0.02-0.24,0.035c-0.22,0.042-0.438,0.096-0.654,0.158
				c-0.013,0.003-0.025,0.005-0.038,0.009c-0.252,0.074-0.501,0.161-0.745,0.261L7.119,89.213
				c-5.106,2.043-7.946,7.241-6.906,12.642c1.04,5.401,5.607,9.172,11.107,9.172h212.708v169h-46.094l3-9h2.594
				c4.142,0,7.5-3.358,7.5-7.5c0-4.142-3.358-7.5-7.5-7.5h-7.846c-0.005,0-0.01,0-0.015,0h-48.263c-0.012,0-0.024,0-0.036,0h-7.84
				c-4.142,0-7.5,3.358-7.5,7.5c0,4.142,3.358,7.5,7.5,7.5h2.594l3,9h-13.594c-4.142,0-7.5,3.358-7.5,7.5c0,4.142,3.358,7.5,7.5,7.5
				h8.5v16.5c0,8.547,6.953,15.5,15.5,15.5h88.5v82.234c-9.29,3.138-16,11.93-16,22.266v16.5h-16.5c-4.142,0-7.5,3.358-7.5,7.5
				c0,4.142,3.358,7.5,7.5,7.5h80c4.142,0,7.5-3.358,7.5-7.5c0-4.142-3.358-7.5-7.5-7.5h-16.5v-16.5c0-10.335-6.71-19.127-16-22.266
				v-82.234h88.501v0.001C336.076,327.028,343.029,320.075,343.029,311.528z M325.123,271.028l-3,9h-21.188l-3-9H325.123z
				 M432.585,96.028H330.636L262.67,28.062L432.585,96.028z M30.473,96.028l169.916-67.966l-67.966,67.966H30.473z M153.636,96.028
				l77.893-77.894l77.894,77.894H153.636z M165.123,271.028l-3,9h-21.188l-3-9H165.123z M240.029,431.528v16.5h-17v-16.5
				c0-4.687,3.813-8.5,8.5-8.5C236.216,423.028,240.029,426.841,240.029,431.528z M327.528,312.028h-192
				c-0.275,0-0.499-0.225-0.499-0.5v-16.5h0.474c0.008,0,0.017,0.002,0.025,0.002s0.016-0.002,0.024-0.002h191.953
				c0.008,0,0.016,0.002,0.024,0.002s0.016-0.002,0.025-0.002h0.474v16.5C328.028,311.803,327.804,312.028,327.528,312.028z"/>
			<path d="M103.529,344.028H30.15l-15.179-121.43c-0.514-4.11-4.268-7.025-8.372-6.512c-4.11,0.514-7.026,4.263-6.512,8.373
				l15.942,127.537v31.533v72c0,4.142,3.358,7.5,7.5,7.5c4.142,0,7.5-3.358,7.5-7.5v-32.5h65v32.5c0,4.142,3.358,7.5,7.5,7.5
				c4.142,0,7.5-3.358,7.5-7.5v-65.734c9.29-3.138,16-11.93,16-22.266C127.029,354.57,116.487,344.028,103.529,344.028z
				 M96.029,408.028h-65v-17h65V408.028z M103.529,376.028h-72.5v-17h72.5c4.687,0,8.5,3.813,8.5,8.5
				S108.216,376.028,103.529,376.028z"/>
			<path d="M456.459,216.085c-4.111-0.516-7.858,2.402-8.372,6.512l-15.179,121.43h-73.379c-12.958,0-23.5,10.542-23.5,23.5
				c0,10.335,6.71,19.127,16,22.266v65.734c0,4.142,3.358,7.5,7.5,7.5c4.142,0,7.5-3.358,7.5-7.5v-32.5h65v32.5
				c0,4.142,3.358,7.5,7.5,7.5c4.142,0,7.5-3.358,7.5-7.5v-72v-31.533l15.942-127.537C463.485,220.348,460.57,216.6,456.459,216.085
				z M432.029,408.028h-65v-17h65V408.028z M432.029,376.028h-72.5c-4.687,0-8.5-3.813-8.5-8.5s3.813-8.5,8.5-8.5h72.5V376.028z"/>
		</g>
	</g>
</g>
<g>
</g>
<g>
</g>
<g>
</g>
<g>
</g>
<g>
</g>
<g>
</g>
<g>
</g>
<g>
</g>
<g>
</g>
<g>
</g>
<g>
</g>
<g>
</g>
<g>
</g>
<g>
</g>
<g>
</g>
</svg>
