<?xml version="1.0" encoding="iso-8859-1"?>
<!-- Generator: Adobe Illustrator 19.0.0, SVG Export Plug-In . SVG Version: 6.00 Build 0)  -->
<svg version="1.1" id="Layer_1" xmlns="http://www.w3.org/2000/svg" xmlns:xlink="http://www.w3.org/1999/xlink" x="0px" y="0px"
	 viewBox="0 0 512 512" style="enable-background:new 0 0 512 512;" xml:space="preserve">
<g>
	<g>
		<path d="M472.434,39.598C446.898,14.063,412.948,0,376.835,0s-70.063,14.063-95.598,39.598
			c-26.801,26.801-58.664,80.484-77.482,130.547c-10.818,28.779-16.868,54.552-17.98,76.605c-0.2,3.957-0.217,7.758-0.093,11.437
			l-95.855,95.856c-9.501-6.616-20.775-10.178-32.596-10.178c-15.278,0-29.642,5.949-40.445,16.753
			C5.982,371.421,0.031,385.785,0.031,401.062c0,15.278,5.949,29.642,16.753,40.446c9.961,9.961,23.252,15.806,37.105,16.634
			c0.829,13.852,6.674,27.144,16.634,37.105C81.327,506.051,95.691,512,110.969,512c15.277,0,29.642-5.949,40.445-16.753
			c10.804-10.803,16.753-25.167,16.753-40.445c0-11.821-3.563-23.095-10.178-32.596l95.837-95.836
			c1.414,0.048,2.848,0.072,4.303,0.072c2.332,0,4.717-0.061,7.154-0.185c22.053-1.113,47.827-7.162,76.605-17.98
			c50.062-18.819,103.745-50.68,130.547-77.482C525.147,178.082,525.147,92.311,472.434,39.598z M136.989,414.357
			c-1.912,1.912-2.987,4.507-2.987,7.212s1.075,5.3,2.987,7.212c6.951,6.95,10.779,16.191,10.779,26.021
			c0,9.83-3.828,19.07-10.779,26.021c-6.95,6.951-16.191,10.779-26.02,10.779s-19.07-3.828-26.021-10.779
			c-8.283-8.283-12.141-20.156-10.321-31.761c0.505-3.22-0.559-6.488-2.864-8.793c-2.305-2.304-5.573-3.367-8.793-2.864
			c-11.605,1.818-23.479-2.038-31.761-10.321c-6.951-6.951-10.779-16.191-10.779-26.021s3.828-19.07,10.779-26.021
			c6.95-6.951,16.191-10.779,26.021-10.779c9.83,0,19.07,3.828,26.021,10.779c1.912,1.912,4.507,2.987,7.212,2.987
			s5.299-1.075,7.212-2.987l91.945-91.946c3.086,9.872,7.931,18.16,14.543,24.772c6.612,6.612,14.903,11.454,24.776,14.54
			L136.989,414.357z M458.009,216.371c-24.57,24.569-76.425,55.191-123.3,72.812c-55.603,20.901-97.929,22.456-116.122,4.26
			c-18.194-18.193-16.641-60.518,4.26-116.122c17.621-46.875,48.243-98.73,72.813-123.3c21.682-21.681,50.51-33.623,81.174-33.623
			c30.663,0,59.492,11.941,81.174,33.624C502.769,98.782,502.769,171.611,458.009,216.371z"/>
	</g>
</g>
<g>
	<g>
		<path d="M190.304,308.999c-3.983-3.984-10.441-3.983-14.424,0l-31.112,31.112c-3.983,3.983-3.983,10.441,0,14.425
			c1.992,1.992,4.602,2.987,7.212,2.987c2.61,0,5.221-0.995,7.212-2.987l31.112-31.112
			C194.286,319.441,194.286,312.983,190.304,308.999z"/>
	</g>
</g>
<g>
	<g>
		<path d="M138.687,360.617c-3.983-3.983-10.44-3.982-14.424,0l-5.656,5.656c-3.983,3.983-3.984,10.441,0,14.424
			c1.992,1.992,4.602,2.987,7.212,2.987c2.61,0,5.22-0.996,7.212-2.987l5.656-5.656C142.669,371.058,142.67,364.6,138.687,360.617z"
			/>
	</g>
</g>
<g>
</g>
<g>
</g>
<g>
</g>
<g>
</g>
<g>
</g>
<g>
</g>
<g>
</g>
<g>
</g>
<g>
</g>
<g>
</g>
<g>
</g>
<g>
</g>
<g>
</g>
<g>
</g>
<g>
</g>
</svg>
