<svg width="34px" height="34px" viewBox="-3.03 0 34 34" xmlns="http://www.w3.org/2000/svg">
  <g id="Frame_24" data-name="Frame 24" transform="translate(-16.074 -10)">
    <path id="Path_149" data-name="Path 149" d="M23.994,14a1,1,0,0,0-.762.352l-4.92,5.79a1,1,0,0,0-.233.747L20.092,41.1a1,1,0,0,0,1,.9H34.914a1,1,0,0,0,1-.9l2.012-20.21a1,1,0,0,0-.233-.747l-4.92-5.79A1,1,0,0,0,32.006,14Zm-2.286-.943A3,3,0,0,1,23.994,12h8.012a3,3,0,0,1,2.286,1.057l4.92,5.79a3,3,0,0,1,.7,2.24L37.9,41.3A3,3,0,0,1,34.914,44H21.087A3,3,0,0,1,18.1,41.3l-2.012-20.21a3,3,0,0,1,.7-2.24Z" fill="#2d2d2d" fill-rule="evenodd"/>
    <path id="Path_150" data-name="Path 150" d="M28,33a3,3,0,1,0-3-3A3,3,0,0,0,28,33Zm0,2a5,5,0,1,0-5-5A5,5,0,0,0,28,35Z" fill="#2d2d2d" fill-rule="evenodd"/>
    <path id="Path_151" data-name="Path 151" d="M38,24H18V22H38Z" fill="#2d2d2d" fill-rule="evenodd"/>
    <path id="Path_152" data-name="Path 152" d="M38,38H18V36H38Z" fill="#2d2d2d" fill-rule="evenodd"/>
    <path id="Path_153" data-name="Path 153" d="M39.5,10.134a1,1,0,0,1,.366,1.366l-3,5.2-1.732-1,3-5.2A1,1,0,0,1,39.5,10.134Z" fill="#2d2d2d" fill-rule="evenodd"/>
    <path id="Path_154" data-name="Path 154" d="M43.718,12.293a1,1,0,0,1,0,1.414l-5.657,5.657L36.646,17.95,42.3,12.293A1,1,0,0,1,43.718,12.293Z" fill="#2d2d2d" fill-rule="evenodd"/>
  </g>
</svg>
