<?xml version="1.0" encoding="iso-8859-1"?>
<!-- Generator: Adobe Illustrator 19.0.0, SVG Export Plug-In . SVG Version: 6.00 Build 0)  -->
<svg version="1.1" id="Layer_1" xmlns="http://www.w3.org/2000/svg" xmlns:xlink="http://www.w3.org/1999/xlink" x="0px" y="0px"
	 viewBox="0 0 512 512" style="enable-background:new 0 0 512 512;" xml:space="preserve">
<g>
	<g>
		<path d="M437.019,74.981C388.668,26.628,324.38,0,256,0C187.62,0,123.333,26.629,74.981,74.981C26.628,123.332,0,187.62,0,256
			s26.629,132.667,74.981,181.019C123.332,485.372,187.62,512,256,512s132.667-26.629,181.019-74.981
			C485.372,388.668,512,324.38,512,256C512,187.62,485.371,123.333,437.019,74.981z M256,491.102
			C126.365,491.102,20.898,385.635,20.898,256S126.365,20.898,256,20.898S491.102,126.365,491.102,256S385.635,491.102,256,491.102z
			"/>
	</g>
</g>
<g>
	<g>
		<path d="M292.863,188.016c-5.072-2.755-11.414-0.877-14.17,4.194c-2.754,5.072-0.877,11.416,4.194,14.17
			c18.22,9.896,29.537,28.909,29.537,49.62c0,31.113-25.313,56.425-56.425,56.425S199.575,287.113,199.575,256
			c0-20.625,11.249-39.601,29.356-49.523c5.061-2.773,6.916-9.123,4.143-14.184c-2.772-5.062-9.123-6.916-14.183-4.143
			c-24.805,13.591-40.214,39.59-40.214,67.85c0,42.636,34.686,77.322,77.322,77.322s77.322-34.686,77.322-77.322
			C333.322,227.623,317.819,201.572,292.863,188.016z"/>
	</g>
</g>
<g>
	<g>
		<path d="M438.193,285.803c-13.05-17.826-13.05-41.779,0-59.605c16.948-23.153,18.564-52.972,4.217-77.822
			c-14.347-24.851-40.984-38.359-69.505-35.258c-21.965,2.39-42.706-9.589-51.618-29.803C309.71,57.061,284.694,40.751,256,40.751
			c-28.694,0-53.71,16.31-65.286,42.565c-8.912,20.213-29.65,32.19-51.619,29.802c-28.521-3.099-55.158,10.408-69.505,35.258
			c-14.347,24.85-12.732,54.669,4.217,77.822c13.05,17.826,13.05,41.779,0,59.605c-16.948,23.153-18.564,52.972-4.217,77.822
			c12.987,22.496,36.039,35.698,61.454,35.697c2.66,0,5.35-0.145,8.052-0.439c21.968-2.391,42.706,9.589,51.618,29.803
			c11.576,26.254,36.592,42.564,65.286,42.564c28.694,0,53.71-16.31,65.286-42.565c8.912-20.213,29.648-32.192,51.619-29.802
			c28.531,3.102,55.158-10.407,69.505-35.258C456.757,338.775,455.142,308.955,438.193,285.803z M424.312,353.176
			c-10.145,17.572-28.974,27.119-49.148,24.931c-31.051-3.379-60.395,13.56-73,42.146c-8.186,18.566-25.875,30.098-46.165,30.098
			c-20.29,0-37.979-11.534-46.165-30.098c-11.539-26.166-37.095-42.572-65.159-42.572c-2.594,0-5.212,0.14-7.842,0.426
			c-20.173,2.195-39.002-7.36-49.147-24.931c-10.145-17.571-9.002-38.657,2.982-55.028c18.454-25.209,18.454-59.084,0-84.293
			c-11.984-16.372-13.127-37.458-2.982-55.03c10.145-17.572,28.971-27.126,49.148-24.931c2.631,0.286,5.245,0.426,7.842,0.426
			c28.062-0.002,53.62-16.408,65.158-42.573C218.021,73.182,235.71,61.649,256,61.649c20.29,0,37.979,11.533,46.165,30.097
			c12.606,28.585,41.929,45.518,73.001,42.146c20.171-2.196,39.002,7.359,49.147,24.931c10.145,17.572,9.003,38.658-2.982,55.03
			c-18.454,25.209-18.454,59.084,0,84.293C433.314,314.518,434.457,335.603,424.312,353.176z"/>
	</g>
</g>
<g>
	<g>
		<path d="M247.716,99.19c-4.082-4.08-10.697-4.08-14.778,0l-14.629,14.629c-4.08,4.081-4.08,10.698,0,14.778
			c2.041,2.041,4.714,3.061,7.388,3.061c2.675,0,5.348-1.02,7.39-3.061l14.629-14.629C251.796,109.887,251.796,103.27,247.716,99.19
			z"/>
	</g>
</g>
<g>
	<g>
		<path d="M384.603,315.484c-4.082-4.08-10.697-4.08-14.778,0l-14.629,14.629c-4.08,4.081-4.08,10.698,0,14.778
			c2.041,2.041,4.714,3.061,7.388,3.061c2.674,0,5.348-1.02,7.389-3.061l14.629-14.629
			C388.683,326.181,388.683,319.564,384.603,315.484z"/>
	</g>
</g>
<g>
	<g>
		<path d="M162.122,241.296c-4.082-4.08-10.697-4.08-14.778,0l-14.629,14.629c-4.08,4.081-4.08,10.698,0,14.778
			c2.041,2.041,4.714,3.06,7.388,3.06s5.348-1.02,7.39-3.06l14.629-14.629C166.202,251.993,166.202,245.377,162.122,241.296z"/>
	</g>
</g>
<g>
	<g>
		<path d="M366.848,161.884c-4.082-4.08-10.697-4.08-14.778,0l-14.629,14.629c-4.08,4.081-4.08,10.698,0,14.778
			c2.041,2.041,4.714,3.06,7.388,3.06c2.674,0,5.348-1.02,7.39-3.06l14.629-14.629C370.928,172.581,370.928,165.964,366.848,161.884
			z"/>
	</g>
</g>
<g>
	<g>
		<path d="M247.716,367.258c-4.082-4.08-10.697-4.08-14.778,0l-14.629,14.629c-4.08,4.081-4.08,10.698,0,14.778
			c2.041,2.041,4.714,3.06,7.388,3.06c2.675,0,5.348-1.02,7.39-3.06l14.629-14.629C251.796,377.954,251.796,371.338,247.716,367.258
			z"/>
	</g>
</g>
<g>
	<g>
		<path d="M323.982,361.45l-14.617-14.618c-4.081-4.08-10.696-4.079-14.778,0c-4.08,4.08-4.08,10.697,0,14.777l14.617,14.618
			c2.041,2.041,4.714,3.06,7.388,3.06c2.674,0,5.348-1.021,7.39-3.06C328.062,372.147,328.062,365.53,323.982,361.45z"/>
	</g>
</g>
<g>
	<g>
		<path d="M149.49,176.508l-14.618-14.617c-4.082-4.081-10.699-4.08-14.778,0c-4.08,4.08-4.08,10.697,0,14.777l14.618,14.617
			c2.041,2.041,4.714,3.061,7.388,3.061s5.349-1.021,7.39-3.061C153.571,187.205,153.571,180.589,149.49,176.508z"/>
	</g>
</g>
<g>
	<g>
		<path d="M384.598,255.911l-14.617-14.618c-4.08-4.079-10.695-4.08-14.778,0c-4.08,4.08-4.08,10.697,0,14.777l14.617,14.618
			c2.041,2.041,4.714,3.06,7.388,3.06c2.674,0,5.348-1.021,7.389-3.06C388.678,266.608,388.678,259.992,384.598,255.911z"/>
	</g>
</g>
<g>
	<g>
		<path d="M144.26,339.595l-14.617-14.618c-4.08-4.08-10.695-4.08-14.778,0c-4.08,4.08-4.08,10.697,0,14.777l14.617,14.618
			c2.041,2.041,4.714,3.06,7.388,3.06c2.674,0,5.348-1.02,7.39-3.06C148.34,350.292,148.34,343.675,144.26,339.595z"/>
	</g>
</g>
<g>
	<g>
		<path d="M256.172,178.679l-0.267-0.001c-0.014,0-0.026,0-0.041,0c-5.752,0-10.426,4.652-10.448,10.409
			c-0.021,5.771,4.639,10.467,10.409,10.489l0.268,0.001c0.014,0,0.026,0,0.041,0c5.752,0,10.425-4.652,10.448-10.409
			C266.603,183.396,261.942,178.701,256.172,178.679z"/>
	</g>
</g>
<g>
</g>
<g>
</g>
<g>
</g>
<g>
</g>
<g>
</g>
<g>
</g>
<g>
</g>
<g>
</g>
<g>
</g>
<g>
</g>
<g>
</g>
<g>
</g>
<g>
</g>
<g>
</g>
<g>
</g>
</svg>
