<?xml version="1.0" encoding="iso-8859-1"?>
<!-- Generator: Adobe Illustrator 19.0.0, SVG Export Plug-In . SVG Version: 6.00 Build 0)  -->
<svg version="1.1" id="Layer_1" xmlns="http://www.w3.org/2000/svg" xmlns:xlink="http://www.w3.org/1999/xlink" x="0px" y="0px"
	 viewBox="0 0 511.998 511.998" style="enable-background:new 0 0 511.998 511.998;" xml:space="preserve">
<g>
	<g>
		<g>
			<path d="M200.338,200.819c-8.185-5.262-41.474-23.847-50.827-27.14c-4.161-1.464-8.718,0.72-10.181,4.878
				c-1.465,4.159,0.72,8.718,4.878,10.181c7.282,2.564,39.616,20.445,47.497,25.511c1.336,0.859,2.83,1.269,4.309,1.269
				c2.626,0,5.198-1.294,6.723-3.668C205.122,208.143,204.048,203.204,200.338,200.819z"/>
			<path d="M189.541,130.793c-1.905-3.976-6.675-5.653-10.65-3.748c-3.976,1.906-5.654,6.674-3.748,10.65
				c4.994,10.421,35.515,64.223,36.812,66.508c1.47,2.591,4.171,4.045,6.951,4.045c1.335,0,2.689-0.336,3.933-1.042
				c3.835-2.176,5.18-7.049,3.003-10.884C225.527,195.769,194.301,140.721,189.541,130.793z"/>
			<path d="M494.628,69.336L386.979,22.519c-5.159-2.244-10.962-2.002-15.92,0.66c-4.957,2.663-8.36,7.369-9.338,12.911
				l-6.789,38.505c-1.069,6.06-0.175,12.076,2.299,17.327c-3.914,2.762-6.576,6.932-7.421,11.727l-6.789,38.505
				c-1.068,6.06-0.173,12.076,2.299,17.327c-3.914,2.761-6.576,6.932-7.422,11.727l-6.789,38.504
				c-1.069,6.06-0.174,12.076,2.299,17.327c-3.486,2.46-5.969,6.04-7.071,10.181l-58.618-24.346
				c-2.583-1.073-4.596-3.086-5.669-5.669L194.171,43.779c-4.125-9.93-13.81-16.313-24.473-16.313h-0.107l-20.663-6.888
				c-5.673-1.89-11.821-0.439-16.048,3.789c-4.227,4.227-5.678,10.376-3.788,16.046l0.372,1.112l-1.112-0.372
				c-5.673-1.89-11.821-0.44-16.047,3.788c-4.227,4.227-5.679,10.376-3.788,16.047l0.371,1.113l-1.112-0.372
				c-5.671-1.889-11.821-0.44-16.047,3.788c-4.227,4.227-5.679,10.376-3.789,16.047l0.37,1.111l-1.111-0.37
				c-5.673-1.888-11.821-0.438-16.047,3.789c-4.227,4.227-5.678,10.376-3.788,16.046l0.372,1.113l-1.112-0.371
				c-5.671-1.889-11.82-0.44-16.047,3.788c-4.227,4.227-5.679,10.376-3.789,16.047l0.37,1.111l-1.111-0.37
				c-5.672-1.889-11.821-0.439-16.047,3.789c-4.227,4.227-5.679,10.376-3.788,16.046l6.888,20.664
				c-0.044,10.705,6.348,20.442,16.313,24.579l163.425,67.877c2.542,1.056,4.528,3.026,5.613,5.551
				c-33.117-19.693-72.101-27.325-110.344-21.479c-39.451,6.027-75.42,25.885-101.277,55.918c-5.342,6.203-7.718,14.405-6.518,22.5
				c1.199,8.089,5.845,15.24,12.746,19.621l47.573,30.202c12.015,7.626,27.329,6.451,38.106-2.929
				c17.384-15.13,43.106-17.075,62.549-4.73c19.58,12.431,28.725,36.671,22.238,58.948c-3.868,13.282,1.75,27.84,13.662,35.403
				l47.569,30.199c4.556,2.892,9.786,4.381,15.068,4.381c2.719,0,5.451-0.395,8.111-1.195c7.837-2.359,14.249-7.998,17.59-15.471
				c5.11-11.429,8.876-23.325,11.281-35.544c3.384,2.11,7.25,3.455,11.351,3.871c1.304,0.839,2.685,1.589,4.147,2.225
				l107.649,46.816c2.344,1.019,4.82,1.526,7.289,1.526c2.968,0,5.925-0.732,8.63-2.185c4.957-2.663,8.361-7.369,9.338-12.911
				l6.789-38.504c1.069-6.06,0.173-12.076-2.299-17.327c3.914-2.762,6.576-6.932,7.422-11.727l6.789-38.504
				c1.069-6.06,0.175-12.076-2.299-17.327c3.914-2.762,6.576-6.932,7.422-11.727l6.789-38.504c1.069-6.06,0.175-12.076-2.299-17.327
				c3.914-2.762,6.576-6.932,7.422-11.727l6.789-38.504c1.069-6.061,0.175-12.076-2.299-17.327
				c3.914-2.762,6.576-6.932,7.421-11.727l6.789-38.504c1.068-6.06,0.173-12.077-2.299-17.327c3.914-2.762,6.576-6.932,7.422-11.727
				l6.789-38.504C513.882,87.638,506.921,74.683,494.628,69.336z M270.941,466.822c-1.447,3.237-4.223,5.678-7.616,6.7
				c-3.436,1.034-6.993,0.545-10.02-1.377l-47.569-30.198c-5.95-3.778-8.784-10.957-6.89-17.459
				c8.461-29.057-3.469-60.676-29.01-76.891c-25.365-16.104-58.915-13.568-81.588,6.166c-5.403,4.703-13.066,5.302-19.067,1.493
				l-47.573-30.203c-3.027-1.921-4.984-4.934-5.51-8.483c-0.519-3.504,0.51-7.055,2.822-9.742
				c23.374-27.147,55.901-45.1,91.589-50.552c36.033-5.504,72.794,2.207,103.517,21.71c5.536,3.515,10.872,7.438,15.912,11.647
				l53.483,128.767C281.993,435.193,277.804,451.475,270.941,466.822z M302.159,373.884l-5.942,33.698l-62.972-151.615
				c-2.704-6.511-7.779-11.586-14.29-14.291L55.531,173.799c-5.136-2.133-6.681-6.968-6.445-10.461
				c0.07-1.038-0.063-2.079-0.392-3.065l-7.159-21.48l15.717,5.239c2.868,0.954,6.031,0.209,8.17-1.929
				c2.138-2.138,2.885-5.301,1.929-8.17l-5.239-15.719l15.719,5.239c2.869,0.954,6.031,0.21,8.17-1.929
				c2.138-2.138,2.886-5.301,1.929-8.17l-5.239-15.719l15.718,5.239c2.865,0.954,6.031,0.21,8.17-1.929
				c2.138-2.138,2.885-5.301,1.929-8.17l-5.239-15.719l15.719,5.239c2.87,0.954,6.031,0.209,8.17-1.929
				c2.138-2.138,2.886-5.301,1.929-8.17l-5.239-15.719l15.718,5.239c2.865,0.954,6.03,0.21,8.17-1.929
				c2.138-2.137,2.885-5.3,1.929-8.17l-5.238-15.719l21.479,7.161c0.987,0.329,2.03,0.462,3.065,0.392
				c3.497-0.235,8.328,1.309,10.461,6.445l67.877,163.423c2.704,6.51,7.779,11.585,14.29,14.29l61.829,25.681l-3.364,19.075
				c-18.833-10.457-41.194-23.143-41.46-23.294c-3.836-2.176-8.708-0.831-10.884,3.003c-2.176,3.835-0.831,8.707,3.003,10.884
				c0.304,0.172,29.367,16.66,49.236,27.595c0.413,1.385,0.928,2.735,1.541,4.036c-3.914,2.762-6.576,6.932-7.422,11.727
				l-6.789,38.504c-1.069,6.06-0.174,12.076,2.299,17.327C305.668,364.918,303.005,369.087,302.159,373.884z M436.268,435.861
				l-6.789,38.504c-0.167,0.952-0.805,1.422-1.171,1.619c-0.365,0.196-1.11,0.468-1.996,0.083L318.664,429.25
				c-5.498-2.392-8.611-8.185-7.57-14.09l6.789-38.504c0.167-0.952,0.805-1.422,1.171-1.619c0.23-0.123,0.611-0.277,1.084-0.277
				c0.277,0,0.584,0.052,0.911,0.195l3.074,1.337l104.564,45.475c0.021,0.01,0.04,0.021,0.062,0.031
				C434.213,424.202,437.304,429.986,436.268,435.861z M448.18,368.302l-6.788,38.504c-0.168,0.952-0.806,1.422-1.172,1.619
				c-0.364,0.196-1.107,0.467-1.995,0.082l-3.075-1.337c-0.029-0.013-0.059-0.02-0.087-0.033l0.003-0.009l-104.553-45.47
				c-5.455-2.409-8.542-8.188-7.506-14.058l6.789-38.504c0.167-0.951,0.805-1.422,1.171-1.619c0.365-0.196,1.11-0.467,1.995-0.082
				l3.074,1.337c0.03,0.013,0.06,0.021,0.089,0.033l-0.003,0.009l104.547,45.468C446.127,356.649,449.216,362.429,448.18,368.302z
				 M460.092,300.744l-6.789,38.504c-0.167,0.952-0.805,1.422-1.171,1.618c-0.365,0.196-1.11,0.467-1.995,0.083l-107.646-46.815
				c-0.019-0.008-0.036-0.019-0.055-0.028c-5.462-2.406-8.554-8.189-7.518-14.063l6.789-38.504c0.167-0.952,0.805-1.423,1.171-1.619
				c0.365-0.196,1.109-0.468,1.995-0.083l3.074,1.337l104.568,45.476c0.02,0.01,0.038,0.02,0.059,0.029
				C458.037,289.085,461.129,294.868,460.092,300.744z M472.006,233.185l-6.789,38.504c-0.167,0.952-0.806,1.423-1.171,1.619
				c-0.366,0.197-1.11,0.467-1.995,0.083l-3.075-1.338c-0.03-0.013-0.06-0.021-0.089-0.033l0.003-0.008l-104.543-45.465
				c-5.462-2.406-8.552-8.188-7.516-14.062l6.79-38.504c0.167-0.951,0.805-1.422,1.17-1.618c0.365-0.196,1.11-0.467,1.996-0.083
				l3.075,1.337c0.029,0.013,0.059,0.021,0.088,0.033l-0.004,0.008l104.548,45.468C469.952,221.532,473.041,227.312,472.006,233.185
				z M483.918,165.627l-6.79,38.504c-0.167,0.951-0.805,1.422-1.17,1.618c-0.365,0.196-1.109,0.468-1.996,0.083l-107.643-46.814
				c-0.02-0.008-0.038-0.02-0.059-0.03c-5.463-2.405-8.554-8.188-7.518-14.062l6.789-38.505c0.167-0.952,0.805-1.422,1.17-1.618
				c0.364-0.196,1.11-0.468,1.996-0.083l107.643,46.814c0.02,0.009,0.038,0.02,0.059,0.03
				C481.862,153.968,484.953,159.751,483.918,165.627z M495.83,98.068l-6.79,38.504c-0.167,0.951-0.805,1.422-1.17,1.618
				c-0.365,0.196-1.11,0.467-1.996,0.083l-3.075-1.337c-0.029-0.013-0.059-0.021-0.088-0.033l0.004-0.008L378.167,91.426
				c-5.458-2.407-8.547-8.187-7.512-14.059l6.789-38.504c0.167-0.951,0.805-1.422,1.171-1.619c0.365-0.196,1.109-0.468,1.995-0.083
				l107.648,46.816C493.758,86.369,496.871,92.162,495.83,98.068z"/>
			<path d="M274.102,274.582c-2.385-3.71-7.326-4.784-11.033-2.398c-3.708,2.384-4.783,7.323-2.398,11.033
				c5.065,7.879,22.946,40.212,25.511,47.497c1.156,3.282,4.239,5.334,7.53,5.334c0.88,0,1.774-0.147,2.652-0.456
				c4.159-1.465,6.343-6.024,4.878-10.181C297.946,316.053,279.362,282.765,274.102,274.582z"/>
		</g>
	</g>
</g>
<g>
</g>
<g>
</g>
<g>
</g>
<g>
</g>
<g>
</g>
<g>
</g>
<g>
</g>
<g>
</g>
<g>
</g>
<g>
</g>
<g>
</g>
<g>
</g>
<g>
</g>
<g>
</g>
<g>
</g>
</svg>
