<?xml version="1.0" encoding="iso-8859-1"?>
<!-- Generator: Adobe Illustrator 18.0.0, SVG Export Plug-In . SVG Version: 6.00 Build 0)  -->
<!DOCTYPE svg PUBLIC "-//W3C//DTD SVG 1.1//EN" "http://www.w3.org/Graphics/SVG/1.1/DTD/svg11.dtd">
<svg version="1.1" id="Capa_1" xmlns="http://www.w3.org/2000/svg" xmlns:xlink="http://www.w3.org/1999/xlink" x="0px" y="0px"
	 viewBox="0 0 55.644 55.644" style="enable-background:new 0 0 55.644 55.644;" xml:space="preserve">
<g>
	<path d="M54.489,36.114l-5.679,0.89l5.214-2.503c0.498-0.239,0.708-0.836,0.469-1.334c-0.238-0.497-0.835-0.711-1.334-0.469
		L41.947,38.08L7.179,43.531c-0.546,0.086-0.918,0.598-0.833,1.144c0.077,0.493,0.502,0.845,0.986,0.845
		c0.052,0,0.104-0.004,0.156-0.012l28.193-4.42L9.986,53.421c-0.498,0.239-0.708,0.836-0.469,1.334
		c0.172,0.358,0.529,0.567,0.902,0.567c0.146,0,0.292-0.031,0.432-0.099l31.693-15.211l12.256-1.921
		c0.545-0.086,0.918-0.598,0.833-1.144C55.546,36.402,55.047,36.03,54.489,36.114z"/>
	<path d="M38.298,28.547v-4.076l0-0.003c0-0.001-0.001-0.002-0.001-0.002l0-4.102l0-0.003c0,0-0.001-0.002,0-0.003v-3.31l0-0.004
		l0-0.003V7.126c0,0,0.001-0.007,0.001-0.011c0,0-0.001-0.007-0.001-0.011V7.088c-0.001-0.083-0.028-0.159-0.035-0.24
		c-0.017-0.19-0.03-0.38-0.082-0.562c-0.016-0.057-0.05-0.109-0.07-0.165c-0.07-0.203-0.146-0.404-0.258-0.596
		c-0.013-0.022-0.034-0.043-0.047-0.065c-1.916-3.135-9.233-4.876-16.878-5.11c-0.592-0.018-1.186-0.027-1.779-0.027
		s-1.187,0.009-1.779,0.027C8.558,0.619,0.181,2.891,0.016,6.995C0.015,7.03,0.002,7.062,0.001,7.098v0.007
		C0.001,7.108,0,7.111,0,7.111c0,0.007,0.001,0.011,0.001,0.011v21.434c0.042,4.441,9.664,6.766,19.148,6.766
		S38.257,32.998,38.298,28.547z M16.738,11.852c-4.671-1.227-5.481-3.278-5.489-3.303c-0.046-0.136-0.068-0.312,0.117-0.584
		c0.658-0.969,3.184-2.107,7.177-2.316c0.063-0.004,0.125-0.007,0.188-0.01c-1.49,0.213-2.629,0.743-3.128,1.479
		C15.293,7.573,15.216,8.1,15.386,8.6c0.611,1.804,3.788,2.463,6.482,2.331c2.839-0.149,5.031-0.973,5.864-2.201
		c0.381-0.563,0.478-1.208,0.271-1.819c-0.821-2.427-5.436-3.479-9.566-3.26c-4.197,0.221-7.541,1.443-8.727,3.191
		C9.208,7.582,9.085,8.393,9.344,9.16c0.052,0.172,0.382,1.079,1.595,2.114c-5.656-0.938-8.926-2.738-8.937-4.151V7.108
		c0-0.003,0.002-0.006,0.002-0.006c0.037-2,6.565-4.779,17.147-4.779c0.662,0,1.308,0.011,1.938,0.032
		c8.8,0.292,14.384,2.537,15.125,4.358c0.001,0.003,0.004,0.006,0.005,0.009c0.043,0.107,0.058,0.211,0.066,0.315
		c0.002,0.024,0.014,0.049,0.014,0.072v0.015c-0.016,2-6.536,4.785-17.148,4.785C18.317,11.907,17.519,11.884,16.738,11.852z
		 M20.078,5.63c3.363,0.102,5.759,1.116,6.033,1.913c-0.074,0.335-1.475,1.239-4.348,1.39c-2.348,0.123-3.874-0.459-4.342-0.824
		c0.319-0.198,1.077-0.494,2.319-0.559c0.552-0.029,0.976-0.5,0.946-1.052C20.665,6.103,20.418,5.775,20.078,5.63z M2.001,28.547
		V10.3c2.867,2.059,8.466,3.254,14.407,3.535c0.008,0.002,0.014,0.004,0.021,0.006c0.082,0.021,0.165,0.03,0.246,0.03
		c0.039,0,0.074-0.014,0.112-0.019c0.785,0.032,1.573,0.054,2.362,0.054c6.9,0,13.842-1.233,17.148-3.607v6.666
		c-0.098,1.703-3.255,2.731-4.446,3.118c-0.525,0.171-0.813,0.735-0.642,1.261c0.138,0.422,0.529,0.69,0.951,0.69
		c0.102,0,0.207-0.016,0.309-0.049c0.929-0.302,2.535-0.828,3.828-1.744v0.039c-0.135,2.496-5.651,3.565-7.73,3.967l-0.157,0.03
		c-0.542,0.105-0.896,0.63-0.791,1.172c0.093,0.478,0.511,0.81,0.98,0.81c0.063,0,0.127-0.006,0.191-0.019l0.156-0.03
		c1.802-0.348,5.184-1.011,7.35-2.577v0.757c-0.117,2.144-3.747,3.642-10.794,4.452l-0.244,0.028
		c-0.549,0.063-0.942,0.56-0.878,1.108c0.059,0.51,0.491,0.885,0.992,0.885c0.039,0,0.078-0.002,0.117-0.007l0.241-0.027
		c2.624-0.302,7.738-0.899,10.566-2.99v0.696c-0.019,1.998-6.551,4.785-17.148,4.785S2.02,30.535,2.001,28.547z"/>
</g>
<g>
</g>
<g>
</g>
<g>
</g>
<g>
</g>
<g>
</g>
<g>
</g>
<g>
</g>
<g>
</g>
<g>
</g>
<g>
</g>
<g>
</g>
<g>
</g>
<g>
</g>
<g>
</g>
<g>
</g>
</svg>
