<?xml version="1.0" encoding="iso-8859-1"?>
<!-- Generator: Adobe Illustrator 19.0.0, SVG Export Plug-In . SVG Version: 6.00 Build 0)  -->
<svg version="1.1" id="Layer_1" xmlns="http://www.w3.org/2000/svg" xmlns:xlink="http://www.w3.org/1999/xlink" x="0px" y="0px"
	 viewBox="0 0 463 463" style="enable-background:new 0 0 463 463;" xml:space="preserve">
<g>
	<g>
		<g>
			<path d="M345.52,63.784l12.745-15.724c3.619-4.464,4.332-10.461,1.858-15.649S352.544,24,346.796,24h-65.262v-0.5
				c0-12.958-10.542-23.5-23.5-23.5h-16c-12.958,0-23.5,10.542-23.5,23.5V24h-56.5c-2.068,0-4.044,0.854-5.461,2.359
				c-1.417,1.506-2.15,3.53-2.025,5.595L156.975,72h-32.053c-6.921,0-13.457,3.029-17.931,8.311
				c-4.474,5.281-6.387,12.226-5.25,19.054l18.172,109.028c2.138,12.827,12.141,23.159,24.894,25.711l22.262,4.452l3.213,53.01
				c-9.594,5.011-16.302,14.827-16.879,26.361l-6.86,137.198c-0.103,2.052,0.641,4.056,2.057,5.544
				c1.416,1.488,3.38,2.331,5.434,2.331h192c2.054,0,4.019-0.843,5.434-2.331c1.416-1.488,2.159-3.492,2.057-5.544l-6.86-137.198
				c-0.577-11.533-7.285-21.349-16.879-26.361l13.498-222.714C344.608,67.553,345.446,65.767,345.52,63.784z M147.749,219.395
				c-6.68-1.336-11.92-6.748-13.04-13.468l-18.172-109.03c-0.417-2.506,0.257-4.953,1.899-6.892
				c1.642-1.939,3.946-3.005,6.486-3.005h32.963l8.247,136.071L147.749,219.395z M233.534,23.5c0-4.687,3.813-8.5,8.5-8.5h16
				c4.687,0,8.5,3.813,8.5,8.5V24h-33V23.5z M331.683,318.677L338.15,448H161.919l6.466-129.323
				c0.439-8.791,7.678-15.677,16.479-15.677h130.34C324.005,303,331.244,309.886,331.683,318.677z M293.388,248.792
				c-3.705-1.855-8.209-0.351-10.062,3.354l-7.208,14.417l-26.084,19.563l-26.083-19.563l-7.208-14.417
				c-1.852-3.704-6.356-5.205-10.062-3.354c-3.705,1.853-5.207,6.357-3.354,10.063l8,16c0.521,1.041,1.276,1.947,2.208,2.646
				l14,10.5h-42.441L171.942,71h156.185l-13.151,217h-42.441l14-10.5c0.932-0.698,1.688-1.604,2.208-2.646l8-16
				C298.595,255.149,297.093,250.645,293.388,248.792z M171.033,56l-1.03-17L346.3,39.001L332.521,56H171.033z"/>
			<path d="M250.035,336c-8.185,0-15.796,2.503-22.109,6.784l-4.587-4.587c-2.929-2.928-7.678-2.928-10.606,0
				c-2.929,2.93-2.929,7.678,0,10.607l4.587,4.587c-4.28,6.313-6.784,13.924-6.784,22.109c0,21.78,17.72,39.5,39.5,39.5
				c8.185,0,15.796-2.503,22.109-6.784l4.587,4.587c1.464,1.464,3.384,2.196,5.303,2.196s3.839-0.732,5.303-2.196
				c2.929-2.93,2.929-7.678,0-10.607l-4.587-4.587c4.28-6.313,6.784-13.924,6.784-22.109C289.535,353.72,271.815,336,250.035,336z
				 M250.034,400c-13.509,0-24.5-10.99-24.5-24.5c0-4.027,0.983-7.827,2.711-11.182l32.97,32.97
				C257.861,399.017,254.061,400,250.034,400z M271.823,386.682l-32.97-32.97c3.355-1.729,7.154-2.712,11.181-2.712
				c13.509,0,24.5,10.99,24.5,24.5C274.534,379.527,273.551,383.327,271.823,386.682z"/>
			<path d="M301.825,223.953l4.849-80.002c0.25-4.135-2.898-7.689-7.033-7.94c-4.128-0.252-7.689,2.897-7.94,7.032l-4.849,80.002
				c-0.25,4.135,2.898,7.689,7.033,7.94c0.154,0.01,0.308,0.014,0.46,0.014C298.281,230.999,301.584,227.933,301.825,223.953z"/>
			<path d="M300.673,118.985c0.155,0.01,0.308,0.014,0.461,0.014c3.935,0,7.238-3.066,7.479-7.046l0.97-16.004
				c0.25-4.135-2.898-7.689-7.033-7.94c-4.132-0.281-7.689,2.897-7.94,7.032l-0.97,16.004
				C293.39,115.18,296.539,118.734,300.673,118.985z"/>
		</g>
	</g>
</g>
<g>
</g>
<g>
</g>
<g>
</g>
<g>
</g>
<g>
</g>
<g>
</g>
<g>
</g>
<g>
</g>
<g>
</g>
<g>
</g>
<g>
</g>
<g>
</g>
<g>
</g>
<g>
</g>
<g>
</g>
</svg>
