<?xml version="1.0" encoding="iso-8859-1"?>
<!-- Generator: Adobe Illustrator 19.0.0, SVG Export Plug-In . SVG Version: 6.00 Build 0)  -->
<svg version="1.1" id="Layer_1" xmlns="http://www.w3.org/2000/svg" xmlns:xlink="http://www.w3.org/1999/xlink" x="0px" y="0px"
	 viewBox="0 0 512 512" style="enable-background:new 0 0 512 512;" xml:space="preserve">
<g>
	<g>
		<g>
			<path d="M470.74,116.58c-2.435-3.742-7.443-4.802-11.185-2.368c-3.742,2.435-4.803,7.442-2.368,11.185
				c25.282,38.863,38.645,84.025,38.645,130.603c0,132.243-107.589,239.832-239.832,239.832S16.168,388.243,16.168,256
				S123.756,16.168,256,16.168c71.838,0,139.293,31.813,185.069,87.279c2.84,3.445,7.937,3.93,11.38,1.09
				c3.444-2.841,3.931-7.937,1.09-11.38C404.68,33.954,332.68,0,256,0C187.619,0,123.333,26.628,74.982,74.982
				C26.628,123.333,0,187.619,0,256s26.628,132.667,74.982,181.019C123.333,485.372,187.619,512,256,512
				s132.667-26.628,181.019-74.982C485.372,388.667,512,324.381,512,256C512,206.284,497.733,158.073,470.74,116.58z"/>
			<path d="M256,45.434c-0.058,0-0.115,0.002-0.172,0.002c0,0-0.019,0-0.028,0C139.785,45.546,45.434,139.96,45.434,256
				c0,116.107,94.459,210.566,210.566,210.566S466.566,372.107,466.566,256S372.107,45.434,256,45.434z M323.774,73.8
				l-14.431,11.332l-27.826-21.853C296.176,65.209,310.324,68.78,323.774,73.8z M244.063,300.347l-39.102,30.707l-39.103-30.709
				l39.102-30.707L244.063,300.347z M165.859,218.371l39.104-30.708l39.102,30.707l-39.104,30.709L165.859,218.371z
				 M218.048,259.359l39.104-30.709l39.104,30.709l-39.104,30.709L218.048,259.359z M309.345,269.638l39.102,30.707l-39.103,30.709
				l-39.102-30.708L309.345,269.638z M309.345,249.08l-39.104-30.709l39.102-30.707l39.104,30.709L309.345,249.08z M257.153,208.092
				l-39.102-30.707l39.102-30.707l39.102,30.708L257.153,208.092z M204.963,167.106l-39.103-30.708l39.102-30.708l20.38,16.006
				c0.001,0.001,0.002,0.002,0.003,0.003l18.719,14.7L204.963,167.106z M191.874,177.384l-39.104,30.709l-39.103-30.708
				l39.104-30.709L191.874,177.384z M191.873,259.359l-39.103,30.708l-39.102-30.708l39.102-30.708L191.873,259.359z
				 M191.873,341.333l-37.381,29.357l-39.103-30.709l37.381-29.356L191.873,341.333z M204.962,351.611l39.103,30.708l-37.381,29.356
				l-39.103-30.708L204.962,351.611z M218.049,341.333l39.103-30.708l39.103,30.708l-39.103,30.708L218.049,341.333z
				 M309.344,351.612l39.103,30.708l-39.103,30.708l-39.103-30.708L309.344,351.612z M322.433,341.333l39.103-30.708l39.103,30.708
				l-39.103,30.709L322.433,341.333z M329.021,264.533c-0.003-0.002-0.006-0.005-0.009-0.008l-6.578-5.165l36.121-28.367
				c0.001-0.001,0.003-0.002,0.005-0.003l2.975-2.337l39.102,30.707l-39.102,30.708L329.021,264.533z M361.534,208.095
				l-39.104-30.71l39.103-30.708l39.104,30.709L361.534,208.095z M309.343,167.104l-39.102-30.706l12.907-10.137
				c0.001-0.001,0.002-0.001,0.003-0.002l26.193-20.571l39.102,30.707L309.343,167.104z M253.25,61.638l43.005,33.773l-19.76,15.517
				c-0.001,0.001-0.002,0.002-0.004,0.003l-19.34,15.188l-16.009-12.573c-0.001-0.001-0.002-0.002-0.003-0.003l-23.09-18.133
				l11.843-9.3c3.512-2.757,4.124-7.84,1.366-11.35c-2.757-3.513-7.841-4.122-11.35-1.366l-14.946,11.738l-15.169-11.913
				C209.648,66.005,231.004,61.949,253.25,61.638z M83.095,344.784c-13.73-26.629-21.49-56.818-21.49-88.785
				c-0.002-77.453,45.537-144.464,111.241-175.688c0.303,0.333,0.629,0.651,0.995,0.939l18.032,14.161l-39.102,30.708l-11.122-8.734
				c-3.509-2.757-8.593-2.147-11.35,1.366c-2.758,3.511-2.146,8.593,1.366,11.35l8.018,6.297l-48.663,38.217
				c-3.512,2.758-4.123,7.84-1.366,11.35c1.594,2.032,3.968,3.091,6.363,3.091c1.573,0,3.143-0.483,4.524-1.422l39.141,30.738
				L100.58,249.08l-16.832-13.219c-3.507-2.757-8.592-2.147-11.35,1.366c-2.758,3.511-2.146,8.593,1.366,11.35l13.729,10.782
				l-13.729,10.782c-3.512,2.758-4.123,7.841-1.366,11.35c1.594,2.032,3.968,3.091,6.363,3.091c1.747,0,3.508-0.564,4.987-1.727
				l16.832-13.219l39.102,30.707L102.301,329.7l-13.887-10.905c-3.509-2.757-8.593-2.147-11.35,1.366
				c-2.758,3.511-2.146,8.593,1.366,11.35l10.783,8.468L83.095,344.784z M178.13,434.099
				c-35.993-15.799-66.314-42.194-86.998-75.221c0.403-0.217,0.793-0.471,1.165-0.763l10.003-7.856l39.103,30.709l-5.121,4.022
				c-3.512,2.758-4.123,7.84-1.366,11.35c1.594,2.032,3.968,3.091,6.363,3.091c1.747,0,3.508-0.563,4.987-1.727l8.224-6.459
				l39.103,30.708L178.13,434.099z M195.744,440.824l10.94-8.591l20.383,16.007C216.313,446.629,205.85,444.127,195.744,440.824z
				 M256,450.397c-0.845,0-1.685-0.022-2.528-0.032c-0.454-1.574-1.38-3.027-2.766-4.115l-30.935-24.295l37.381-29.357
				l39.103,30.708l-2.321,1.823c-3.512,2.758-4.123,7.84-1.366,11.35c1.595,2.032,3.968,3.091,6.363,3.091
				c1.747,0,3.508-0.563,4.987-1.727l57.615-45.247l6.503,5.107c1.48,1.163,3.24,1.727,4.987,1.727c2.396,0,4.769-1.06,6.363-3.091
				c2.758-3.511,2.146-8.593-1.366-11.35l-3.4-2.67l39.103-30.709l7.837,6.155C387.303,413.3,325.906,450.397,256,450.397z
				 M425.855,178.142l6.077-4.773c11.833,25.092,18.464,53.101,18.464,82.634c0.001,31.45-7.516,61.176-20.834,87.488l-3.602-2.829
				c1.065-2.603,0.744-5.687-1.118-8.057c-2.694-3.433-7.604-4.085-11.103-1.54l-39.116-30.718l39.102-30.707l16.832,13.219
				c1.48,1.163,3.24,1.727,4.987,1.727c2.396,0,4.769-1.06,6.363-3.091c2.758-3.511,2.146-8.593-1.366-11.35l-13.729-10.782
				l13.729-10.782c3.512-2.758,4.123-7.84,1.366-11.35c-2.757-3.513-7.842-4.122-11.35-1.366l-16.832,13.219l-39.102-30.707
				l39.141-30.738c1.38,0.939,2.951,1.422,4.523,1.422c2.396,0,4.769-1.06,6.363-3.091
				C426.456,183.667,426.809,180.695,425.855,178.142z M424.225,158.861l-10.499,8.246l-39.104-30.709l8.018-6.297
				c3.512-2.758,4.123-7.84,1.366-11.35c-2.758-3.513-7.84-4.122-11.35-1.366l-11.122,8.734l-39.102-30.708l18.032-14.161
				c0.082-0.065,0.154-0.136,0.233-0.203c35.004,17.016,64.168,44.23,83.606,77.759
				C424.278,158.826,424.251,158.842,424.225,158.861z"/>
		</g>
	</g>
</g>
<g>
</g>
<g>
</g>
<g>
</g>
<g>
</g>
<g>
</g>
<g>
</g>
<g>
</g>
<g>
</g>
<g>
</g>
<g>
</g>
<g>
</g>
<g>
</g>
<g>
</g>
<g>
</g>
<g>
</g>
</svg>
