<?xml version="1.0" encoding="iso-8859-1"?>
<!-- Generator: Adobe Illustrator 19.0.0, SVG Export Plug-In . SVG Version: 6.00 Build 0)  -->
<svg version="1.1" id="Layer_1" xmlns="http://www.w3.org/2000/svg" xmlns:xlink="http://www.w3.org/1999/xlink" x="0px" y="0px"
	 viewBox="0 0 512 512" style="enable-background:new 0 0 512 512;" xml:space="preserve">
<g>
	<g>
		<path d="M359.562,81.366c-1.9-1.898-4.425-2.942-7.112-2.942c-2.686,0-5.213,1.046-7.116,2.947l-47.507,47.507
			c-3.924,3.92-3.925,10.305-0.001,14.23c8.235,8.235,19.198,12.77,30.87,12.77c11.672,0,22.635-4.535,30.869-12.77
			C376.586,126.087,376.586,98.392,359.562,81.366z M348.483,132.026c-5.274,5.274-12.301,8.178-19.786,8.178
			c-5.573,0-10.892-1.609-15.422-4.608l38.776-38.776C359.224,107.679,358.035,122.474,348.483,132.026z"/>
	</g>
</g>
<g>
	<g>
		<path d="M176.494,112.535c-14.637,0-26.544,11.908-26.544,26.544c0,14.636,11.907,26.545,26.544,26.545
			c14.637,0,26.544-11.908,26.544-26.544C203.037,124.444,191.131,112.535,176.494,112.535z M176.494,149.949
			c-5.994,0-10.87-4.877-10.87-10.87s4.877-10.87,10.87-10.87s10.87,4.877,10.87,10.87S182.487,149.949,176.494,149.949z"/>
	</g>
</g>
<g>
	<g>
		<path d="M405.58,146.968c-12.299,0-22.306,10.006-22.306,22.305c0.001,12.299,10.007,22.305,22.306,22.305
			s22.305-10.006,22.305-22.305C427.886,156.974,417.88,146.968,405.58,146.968z M405.58,175.905c-3.657,0-6.633-2.975-6.633-6.632
			c0-3.657,2.976-6.632,6.633-6.632c3.657,0,6.632,2.975,6.632,6.632C412.212,172.931,409.237,175.905,405.58,175.905z"/>
	</g>
</g>
<g>
	<g>
		<path d="M278.886,35.369c-14.637,0-26.544,11.908-26.544,26.544c0,14.636,11.907,26.544,26.544,26.544
			c14.637,0,26.545-11.908,26.545-26.544C305.431,47.276,293.523,35.369,278.886,35.369z M278.886,72.782
			c-5.994,0-10.87-4.877-10.87-10.87s4.877-10.87,10.87-10.87c5.995,0,10.871,4.877,10.871,10.87S284.881,72.782,278.886,72.782z"/>
	</g>
</g>
<g>
	<g>
		<path d="M123.296,393.144c-11.091,0-20.114,9.023-20.114,20.113c0,4.328,3.508,7.837,7.837,7.837c4.329,0,7.837-3.509,7.837-7.837
			c0-2.448,1.992-4.44,4.441-4.44c2.448,0,4.44,1.992,4.44,4.44c0,4.328,3.508,7.837,7.837,7.837s7.837-3.509,7.837-7.837
			C143.409,402.167,134.386,393.144,123.296,393.144z"/>
	</g>
</g>
<g>
	<g>
		<path d="M216.832,393.144c-11.091,0-20.113,9.023-20.113,20.113c0,4.328,3.508,7.837,7.837,7.837c4.328,0,7.837-3.509,7.837-7.837
			c0-2.448,1.992-4.44,4.44-4.44s4.44,1.992,4.44,4.44c0,4.328,3.508,7.837,7.837,7.837c4.329,0,7.837-3.509,7.837-7.837
			C236.945,402.167,227.923,393.144,216.832,393.144z"/>
	</g>
</g>
<g>
	<g>
		<path d="M171.233,339.361c-11.091,0-20.113,9.023-20.113,20.113c0,4.328,3.508,7.837,7.837,7.837c4.329,0,7.837-3.509,7.837-7.837
			c0-2.448,1.992-4.44,4.44-4.44s4.44,1.992,4.44,4.44c0,4.328,3.508,7.837,7.837,7.837s7.837-3.509,7.837-7.837
			C191.346,348.384,182.323,339.361,171.233,339.361z"/>
	</g>
</g>
<g>
	<g>
		<path d="M318.552,300.193c-11.091,0-20.113,9.023-20.113,20.113c0,4.328,3.508,7.837,7.837,7.837c4.329,0,7.837-3.509,7.837-7.837
			c0-2.448,1.992-4.44,4.44-4.44s4.44,1.992,4.44,4.44c0,4.328,3.508,7.837,7.837,7.837s7.837-3.509,7.837-7.837
			C338.665,309.216,329.642,300.193,318.552,300.193z"/>
	</g>
</g>
<g>
	<g>
		<path d="M379.351,350.468c-11.091,0-20.113,9.023-20.113,20.113c0,4.328,3.508,7.837,7.837,7.837c4.328,0,7.837-3.509,7.837-7.837
			c0-2.448,1.992-4.44,4.44-4.44s4.44,1.992,4.44,4.44c0,4.328,3.508,7.837,7.837,7.837s7.837-3.509,7.837-7.837
			C399.464,359.491,390.442,350.468,379.351,350.468z"/>
	</g>
</g>
<g>
	<g>
		<path d="M512,413.258c0-10.786-6.07-20.181-14.97-24.953c0.228-1.393,0.355-2.819,0.355-4.276
			c0-12.228-8.313-22.546-19.583-25.611v-56.372c0-4.823-1.879-9.359-5.291-12.775c-3.414-3.413-7.95-5.291-12.776-5.291h-13.519
			c-0.302-18.256-12.894-33.574-29.844-38.016c1.171-2.706,1.799-5.643,1.799-8.682c0-5.841-2.276-11.333-6.406-15.462
			s-9.621-6.404-15.461-6.404s-11.332,2.274-15.464,6.404l-0.919,0.919l-3.852-8.435c-2.003-4.389-5.595-7.735-10.118-9.424
			c-4.472-1.671-9.469-1.497-13.819,0.49l-20.158,9.201c-3.937-3.804-9.283-6.159-15.177-6.159h-5.622
			c0.386-1.613,0.597-3.294,0.597-5.025c0-12.058-9.81-21.867-21.867-21.867H222.09c-12.058,0-21.868,9.81-21.868,21.867
			c0,1.731,0.211,3.412,0.597,5.025h-20.821c-8.873,0-16.5,5.323-19.917,12.936l-9.393-4.287c-4.352-1.986-9.349-2.16-13.819-0.49
			c-4.521,1.689-8.116,5.034-10.119,9.423l-4.282,9.381l-1.851-1.851c-4.129-4.13-9.621-6.405-15.462-6.405
			c-5.842,0-11.334,2.275-15.464,6.406c-6.604,6.606-8.069,16.414-4.437,24.466c-16.348,4.836-28.36,19.854-28.653,37.679H43.09
			c-4.826,0-9.363,1.88-12.778,5.294c-3.411,3.414-5.289,7.95-5.289,12.772v49.236c-6.323,4.857-10.408,12.487-10.408,21.056
			c0,1.457,0.128,2.883,0.355,4.276C6.07,393.077,0,402.471,0,413.258c0,8.552,3.819,16.224,9.835,21.417
			c-0.311,1.583-0.482,3.216-0.482,4.889c0,13.992,11.383,25.375,25.375,25.375c1.143,0,2.264-0.085,3.368-0.232
			c4.668,7.169,12.747,11.923,21.922,11.923h53.876c4.329,0,7.837-3.509,7.837-7.837c0-4.328-3.508-7.837-7.837-7.837H60.018
			c-5.774,0-10.472-4.698-10.472-10.471V419.9c0-95.724,77.877-173.601,173.601-173.601h65.706
			c95.723,0,173.601,77.877,173.601,173.601v30.587c0,5.774-4.698,10.471-10.473,10.471H150.465c-4.329,0-7.837,3.509-7.837,7.837
			c0,4.328,3.508,7.837,7.837,7.837h301.516c9.175,0,17.255-4.754,21.922-11.923c1.103,0.147,2.225,0.232,3.368,0.232
			c13.992,0,25.374-11.383,25.374-25.375c0-1.673-0.17-3.306-0.482-4.889C508.181,429.483,512,421.811,512,413.258z M33.872,449.228
			c-4.342-0.381-7.867-3.636-8.67-7.845c1.018,0.111,2.049,0.172,3.095,0.172c1.909,0,3.771-0.199,5.575-0.564V449.228z
			 M33.872,419.9v4.668c-1.683,0.834-3.573,1.314-5.575,1.314c-6.961,0-12.624-5.663-12.624-12.624s5.663-12.624,12.624-12.624
			c2.333,0,4.514,0.648,6.392,1.756C34.158,408.158,33.872,413.996,33.872,419.9z M36.858,386.312
			c-2.08-0.665-4.259-1.109-6.518-1.271c-0.03-0.334-0.051-0.672-0.051-1.014c0-5.495,4.102-10.039,9.402-10.759
			C38.6,377.561,37.65,381.909,36.858,386.312z M44.389,357.688c-1.061-0.131-2.136-0.204-3.23-0.204
			c-0.155,0-0.308,0.009-0.462,0.011v-43.759c0-1.303,1.09-2.393,2.393-2.393h16.435c1.033,2.544,2.325,4.957,3.836,7.209
			C55.612,330.728,49.221,343.846,44.389,357.688z M73.549,304.085c-0.822-2.436-1.284-5.036-1.284-7.747
			c0-13.408,10.908-24.317,24.316-24.317c2.506,0,4.915,0.402,7.192,1.111C92.564,282.267,82.418,292.655,73.549,304.085z
			 M111.565,259.271c-2.242-0.91-4.581-1.629-7.002-2.122l-3.784-3.784c-2.415-2.415-2.415-6.346,0-8.76
			c1.169-1.17,2.725-1.815,4.38-1.815c1.654,0,3.209,0.645,4.378,1.814l5.987,5.987L111.565,259.271z M130.888,254.687
			l10.126-22.186c0.539-1.182,1.982-1.724,3.169-1.183l19.481,8.892C152.218,244.008,141.255,248.875,130.888,254.687z
			 M222.093,197.192h67.814c3.415,0,6.193,2.778,6.193,6.193c0,2.069-1.024,3.899-2.586,5.025h-44.529
			c-0.142,0-0.279,0.019-0.419,0.022c-0.25-0.008-0.498-0.022-0.75-0.022h-29.33c-1.562-1.125-2.586-2.956-2.586-5.025
			C215.899,199.971,218.677,197.192,222.093,197.192z M227.13,230.625h-3.984c-12.104,0-23.942,1.156-35.42,3.339l-13.417-6.124
			c0.949-2.206,3.142-3.755,5.692-3.755h48.022c-0.582,1.965-0.907,4.042-0.907,6.194
			C227.117,230.395,227.128,230.509,227.13,230.625z M322.051,233.543c-10.781-1.915-21.875-2.917-33.197-2.917h-46.045
			c-0.006-0.116-0.018-0.23-0.018-0.348c0-3.415,2.778-6.194,6.194-6.194h67.813c3.416,0,6.194,2.778,6.194,6.194
			C322.992,231.476,322.644,232.593,322.051,233.543z M337.587,236.997c0.689-2.12,1.078-4.373,1.078-6.72
			c0-0.506-0.042-1.002-0.075-1.5l20.053-9.152c1.184-0.542,2.629,0.005,3.167,1.184l14.204,31.118
			C363.908,245.62,351.041,240.586,337.587,236.997z M391.265,247.593l-4.398-9.636l5.054-5.055c1.171-1.17,2.727-1.815,4.382-1.815
			c1.654,0,3.209,0.644,4.379,1.814c1.17,1.169,1.814,2.725,1.814,4.379s-0.644,3.209-1.814,4.379l-4.239,4.239
			C394.668,246.348,392.939,246.913,391.265,247.593z M420.429,283.978c-6.379-6.177-13.191-11.908-20.383-17.148l-2.27-4.971
			c2.638-0.984,5.488-1.531,8.466-1.531c13.185,0,23.944,10.549,24.3,23.649H420.429z M462.128,343.78L462.128,343.78
			c-7.048-15.983-16.235-30.818-27.211-44.128h24.818c1.303,0,2.393,1.089,2.393,2.393V343.78z M475.142,386.312
			c-0.792-4.403-1.742-8.751-2.833-13.043c5.3,0.72,9.402,5.264,9.402,10.759c0,0.343-0.021,0.679-0.051,1.014
			C479.401,385.204,477.223,385.648,475.142,386.312z M478.128,449.228v-8.237c1.803,0.366,3.665,0.564,5.575,0.564
			c1.046,0,2.076-0.062,3.094-0.172C485.992,445.593,482.467,448.846,478.128,449.228z M483.702,425.883
			c-2.002,0-3.891-0.481-5.575-1.314v-4.668c0-5.904-0.285-11.742-0.817-17.509c1.878-1.109,4.058-1.756,6.392-1.756
			c6.961,0,12.624,5.663,12.624,12.624C496.327,420.219,490.663,425.883,483.702,425.883z"/>
	</g>
</g>
<g>
</g>
<g>
</g>
<g>
</g>
<g>
</g>
<g>
</g>
<g>
</g>
<g>
</g>
<g>
</g>
<g>
</g>
<g>
</g>
<g>
</g>
<g>
</g>
<g>
</g>
<g>
</g>
<g>
</g>
</svg>
