<?xml version="1.0" encoding="iso-8859-1"?>
<!-- Generator: Adobe Illustrator 19.0.0, SVG Export Plug-In . SVG Version: 6.00 Build 0)  -->
<svg version="1.1" id="Layer_1" xmlns="http://www.w3.org/2000/svg" xmlns:xlink="http://www.w3.org/1999/xlink" x="0px" y="0px"
	 viewBox="0 0 463 463" style="enable-background:new 0 0 463 463;" xml:space="preserve">
<g>
	<g>
		<g>
			<path d="M367.372,142.726c-0.413-8.257-7.213-14.726-15.481-14.726H298.12l-12.974-82.169C280.953,19.274,258.396,0,231.49,0
				c-26.885,0-49.442,19.274-53.635,45.831L164.881,128H111.11c-8.268,0-15.068,6.469-15.481,14.726l-15.2,304
				c-0.211,4.22,1.338,8.396,4.25,11.457S91.685,463,95.911,463h271.18c4.225,0,8.318-1.756,11.23-4.817s4.461-7.236,4.25-11.457
				L367.372,142.726z M192.672,48.171C195.708,28.95,212.032,15,231.511,15c19.458,0,35.784,13.95,38.819,33.171L282.935,128
				H180.068L192.672,48.171z M367.453,447.845C367.305,448,367.149,448,367.091,448H95.911c-0.059,0-0.214,0-0.362-0.155
				c-0.148-0.155-0.14-0.311-0.137-0.369l15.2-304c0.013-0.267,0.233-0.476,0.5-0.476h51.402l-2.421,15.33
				c-0.646,4.092,2.147,7.932,6.238,8.578c0.396,0.063,0.79,0.093,1.179,0.093c3.626,0,6.815-2.636,7.399-6.331l2.79-17.67h107.604
				l2.79,17.67c0.646,4.091,4.483,6.88,8.578,6.238c4.091-0.646,6.884-4.486,6.238-8.578l-2.42-15.33h51.402
				c0.267,0,0.486,0.209,0.5,0.476l15.2,304C367.593,447.534,367.601,447.689,367.453,447.845z"/>
			<path d="M231.501,192c-4.142,0-7.5,3.357-7.5,7.5V240h-9v-40.5c0-4.143-3.358-7.5-7.5-7.5c-4.142,0-7.5,3.357-7.5,7.5V240h-9
				v-40.5c0-4.143-3.358-7.5-7.5-7.5c-4.142,0-7.5,3.357-7.5,7.5v56c0,12.958,10.542,23.5,23.5,23.5h0.5v128.5
				c0,4.143,3.358,7.5,7.5,7.5c4.142,0,7.5-3.357,7.5-7.5V279h0.5c12.958,0,23.5-10.542,23.5-23.5v-56
				C239.001,195.357,235.643,192,231.501,192z M224.001,255.5c0,4.687-3.813,8.5-8.5,8.5h-16c-4.687,0-8.5-3.813-8.5-8.5V255h33
				V255.5z"/>
			<path d="M287.719,206.754c-0.816-8.162-7.617-14.317-15.82-14.317c-8.767,0-15.899,7.133-15.899,15.899V407.5
				c0,4.143,3.358,7.5,7.5,7.5s7.5-3.357,7.5-7.5V359h6.717c6.653,0,13.02-2.837,17.47-7.782s6.6-11.576,5.9-18.191L287.719,206.754
				z M284.036,341.186C282.403,343,280.159,344,277.718,344H271V208.336c0-0.496,0.403-0.899,0.899-0.899
				c0.464,0,0.849,0.348,0.899,0.853l13.372,126.316C286.427,337.033,285.669,339.37,284.036,341.186z"/>
		</g>
	</g>
</g>
<g>
</g>
<g>
</g>
<g>
</g>
<g>
</g>
<g>
</g>
<g>
</g>
<g>
</g>
<g>
</g>
<g>
</g>
<g>
</g>
<g>
</g>
<g>
</g>
<g>
</g>
<g>
</g>
<g>
</g>
</svg>
