<?xml version="1.0" encoding="iso-8859-1"?>
<!-- Generator: Adobe Illustrator 19.0.0, SVG Export Plug-In . SVG Version: 6.00 Build 0)  -->
<svg version="1.1" id="Layer_1" xmlns="http://www.w3.org/2000/svg" xmlns:xlink="http://www.w3.org/1999/xlink" x="0px" y="0px"
	 viewBox="0 0 512 512" style="enable-background:new 0 0 512 512;" xml:space="preserve">
<path d="M420.796,312.246c-10.054-41.346-28.999-88.845-56.309-141.179C318.191,82.348,262.94,9.153,262.387,8.424L256,0
	l-6.387,8.424c-0.554,0.729-55.803,73.924-102.1,162.642c-27.311,52.334-46.255,99.833-56.309,141.179
	c-12.835,52.781-11.191,95.955,4.89,128.326C119.639,487.968,173.439,512,256,512c82.56,0,136.361-24.032,159.905-71.428
	C431.985,408.202,433.631,365.027,420.796,312.246z M401.549,433.441c-19.876,40.012-66.135,60.997-137.534,62.442V435.92
	c1.315-3.892,6.333-17.751,15.364-31.562c13.469-20.599,28.933-31.042,45.964-31.042v-16.029c-29.04,0-49.01,21.347-61.328,41.279
	V281.976c4-7.191,21.836-36.67,45.331-36.67v-16.029c-19.306,0-34.834,12.613-45.331,24.793V119.946h-16.029v62.015
	c-9.114-8.577-22.379-16.695-39.989-16.695v16.029c22.885,0,36.57,20.319,39.989,26.08v122.586
	c-11.715-12.542-30.279-26.01-55.986-26.01v16.029c32.779,0,51.872,29.602,55.986,36.718v139.185
	c-71.398-1.446-117.655-22.428-137.532-62.437C53.012,317.832,220.667,75.695,256.008,26.799
	c15.756,21.751,57.803,81.804,94.268,151.684C409.91,292.757,427.639,380.92,401.549,433.441z"/>
<g>
</g>
<g>
</g>
<g>
</g>
<g>
</g>
<g>
</g>
<g>
</g>
<g>
</g>
<g>
</g>
<g>
</g>
<g>
</g>
<g>
</g>
<g>
</g>
<g>
</g>
<g>
</g>
<g>
</g>
</svg>
